<?xml version="1.0" encoding="utf-8"?>
<!-- Generator: Adobe Illustrator 26.3.1, SVG Export Plug-In . SVG Version: 6.00 Build 0)  -->
<svg version="1.1" id="Layer_1" xmlns="http://www.w3.org/2000/svg" xmlns:xlink="http://www.w3.org/1999/xlink" x="0px" y="0px"
	 viewBox="0 0 196.8 62" style="enable-background:new 0 0 196.8 62;" xml:space="preserve">
<style type="text/css">
	.st0{fill:#FFFFFF;}
	.st1{fill:#FF0000;}
	.st2{fill:#FFCC00;}
</style>
<g id="Background">
	<rect x="0.1" y="2.3" class="st0" width="196.7" height="60"/>
</g>
<g id="Name" transform="scale(1,-1) translate(0,-104)">
	<path d="M40.4,94v8.2H42c0.7,0,1.2-0.1,1.7-0.2c0.5-0.1,0.9-0.4,1.2-0.7c0.3-0.3,0.6-0.7,0.7-1.2c0.2-0.5,0.2-1.1,0.2-1.8
		c0-0.8-0.1-1.4-0.3-1.9c-0.2-0.5-0.5-1-0.8-1.3s-0.8-0.6-1.3-0.8c-0.5-0.2-1.1-0.2-1.7-0.2H40.4z M41.5,101.4v-6.5h0.4
		c0.5,0,0.9,0.1,1.3,0.2c0.4,0.1,0.7,0.3,0.9,0.6c0.3,0.3,0.4,0.6,0.6,1.1c0.1,0.4,0.2,1,0.2,1.6c0,0.6-0.1,1.1-0.2,1.5
		s-0.3,0.7-0.6,1c-0.2,0.2-0.5,0.4-0.9,0.5c-0.4,0.1-0.8,0.2-1.2,0.2H41.5z M48.2,94h-1v5.7h1V94z M47.7,101.1
		c-0.2,0-0.4,0.1-0.5,0.2c-0.1,0.1-0.2,0.3-0.2,0.5c0,0.2,0.1,0.4,0.2,0.5c0.1,0.1,0.3,0.2,0.5,0.2c0.2,0,0.3-0.1,0.5-0.2
		c0.1-0.1,0.2-0.3,0.2-0.5c0-0.2-0.1-0.4-0.2-0.5C48.1,101.2,47.9,101.1,47.7,101.1z M53.3,97.8c0-0.2,0-0.5,0-0.6
		c0-0.2,0-0.3,0-0.5h-2.9c0-0.7,0.2-1.2,0.4-1.5c0.3-0.3,0.6-0.5,1.1-0.5c0.2,0,0.3,0,0.5,0.1c0.1,0,0.3,0.1,0.4,0.1
		c0.1,0.1,0.2,0.1,0.2,0.2c0.1,0.1,0.1,0.1,0.1,0.1l0.4-0.7c0,0-0.1-0.1-0.2-0.2c-0.1-0.1-0.2-0.2-0.3-0.2c-0.1-0.1-0.3-0.1-0.5-0.2
		c-0.2-0.1-0.4-0.1-0.7-0.1c-0.4,0-0.7,0.1-1,0.2c-0.3,0.1-0.5,0.3-0.7,0.6c-0.2,0.2-0.4,0.6-0.5,1c-0.1,0.4-0.2,0.8-0.2,1.4
		c0,0.5,0.1,0.9,0.2,1.3c0.1,0.4,0.3,0.7,0.5,0.9c0.2,0.2,0.4,0.4,0.7,0.5c0.3,0.1,0.5,0.2,0.8,0.2c0.5,0,1-0.2,1.3-0.5
		C53.2,99,53.3,98.5,53.3,97.8z M51.5,99.1c-0.3,0-0.6-0.1-0.8-0.4s-0.3-0.7-0.4-1.2h2.1c0,0,0,0.1,0,0.2c0,0.1,0,0.2,0,0.2
		c0,0.4-0.1,0.7-0.2,0.9C52.1,99,51.8,99.1,51.5,99.1z M61.7,100.1c0-0.3,0-0.5-0.1-0.7c-0.1-0.2-0.2-0.4-0.3-0.6
		c-0.1-0.2-0.3-0.3-0.4-0.4c-0.2-0.1-0.3-0.2-0.5-0.2v0c0.2,0,0.4-0.1,0.6-0.2c0.2-0.1,0.3-0.2,0.5-0.4c0.1-0.2,0.2-0.4,0.3-0.6
		c0.1-0.2,0.1-0.5,0.1-0.7c0-0.3-0.1-0.6-0.2-0.9s-0.3-0.5-0.5-0.7c-0.2-0.2-0.5-0.4-0.9-0.5C59.9,94.1,59.5,94,59,94h-1.7v8.2h1.6
		c0.5,0,0.9,0,1.2-0.1c0.3-0.1,0.6-0.2,0.9-0.4s0.4-0.4,0.5-0.7C61.6,100.7,61.7,100.4,61.7,100.1z M60.6,100.1
		c0,0.4-0.1,0.7-0.4,0.9c-0.3,0.2-0.7,0.4-1.3,0.4h-0.5v-2.8h0.5c0.6,0,1,0.1,1.3,0.4C60.5,99.2,60.6,99.6,60.6,100.1z M60.8,96.3
		c0,0.4-0.1,0.8-0.4,1.1c-0.3,0.3-0.7,0.4-1.2,0.4h-0.7v-2.9H59c0.6,0,1.1,0.1,1.3,0.4C60.6,95.5,60.8,95.8,60.8,96.3z M66.8,97.8
		c0-0.2,0-0.5,0-0.6c0-0.2,0-0.3,0-0.5h-2.9c0-0.7,0.2-1.2,0.4-1.5c0.3-0.3,0.6-0.5,1.1-0.5c0.2,0,0.3,0,0.5,0.1
		c0.1,0,0.3,0.1,0.4,0.1c0.1,0.1,0.2,0.1,0.2,0.2c0.1,0.1,0.1,0.1,0.1,0.1l0.4-0.7c0,0-0.1-0.1-0.2-0.2c-0.1-0.1-0.2-0.2-0.3-0.2
		c-0.1-0.1-0.3-0.1-0.5-0.2c-0.2-0.1-0.4-0.1-0.7-0.1c-0.4,0-0.7,0.1-1,0.2c-0.3,0.1-0.5,0.3-0.7,0.6c-0.2,0.2-0.4,0.6-0.5,1
		c-0.1,0.4-0.2,0.8-0.2,1.4c0,0.5,0.1,0.9,0.2,1.3c0.1,0.4,0.3,0.7,0.5,0.9s0.4,0.4,0.7,0.5c0.3,0.1,0.5,0.2,0.8,0.2
		c0.5,0,1-0.2,1.3-0.5C66.7,99,66.8,98.5,66.8,97.8z M65,99.1c-0.3,0-0.6-0.1-0.8-0.4c-0.2-0.3-0.3-0.7-0.4-1.2h2.1c0,0,0,0.1,0,0.2
		c0,0.1,0,0.2,0,0.2c0,0.4-0.1,0.7-0.2,0.9C65.5,99,65.3,99.1,65,99.1z M67.8,95.5c0,0.3,0.1,0.6,0.2,0.8c0.1,0.2,0.3,0.4,0.5,0.5
		c0.2,0.1,0.5,0.2,0.8,0.3c0.3,0.1,0.6,0.1,0.9,0.1h0.3v0.5c0,0.5-0.1,0.8-0.3,1C70,98.9,69.8,99,69.5,99c-0.3,0-0.5-0.1-0.7-0.2
		c-0.2-0.1-0.3-0.2-0.5-0.3l-0.4,0.6c0.1,0.1,0.1,0.1,0.2,0.2c0.1,0.1,0.2,0.2,0.4,0.2c0.1,0.1,0.3,0.1,0.5,0.2
		c0.2,0,0.4,0.1,0.6,0.1c0.6,0,1-0.2,1.3-0.5c0.3-0.3,0.5-0.8,0.5-1.6v-2.6c0-0.2,0-0.5,0-0.7c0-0.2,0-0.4,0-0.5h-0.9l0,0.6h0
		c0-0.1-0.1-0.2-0.1-0.2c-0.1-0.1-0.1-0.2-0.2-0.2c-0.1-0.1-0.2-0.1-0.3-0.2c-0.1-0.1-0.3-0.1-0.5-0.1c-0.2,0-0.4,0-0.6,0.1
		c-0.2,0.1-0.3,0.2-0.5,0.3c-0.1,0.1-0.2,0.3-0.3,0.5C67.8,95,67.8,95.2,67.8,95.5z M69.5,94.7c0.1,0,0.3,0,0.4,0.1
		c0.1,0,0.2,0.1,0.3,0.1c0.1,0.1,0.1,0.1,0.2,0.2c0.1,0.1,0.1,0.1,0.1,0.2v1.3l-0.3,0c-0.5,0-0.8-0.1-1-0.2
		c-0.2-0.1-0.4-0.4-0.4-0.7c0-0.3,0.1-0.5,0.2-0.7C69.1,94.8,69.2,94.7,69.5,94.7z M76.8,94H76v0.6h0c0,0-0.1-0.1-0.2-0.2
		c-0.1-0.1-0.2-0.2-0.3-0.3C75.4,94.1,75.2,94,75,94s-0.4-0.1-0.6-0.1c-0.3,0-0.5,0-0.7,0.1c-0.2,0.1-0.4,0.2-0.5,0.4
		c-0.1,0.2-0.3,0.4-0.3,0.6c-0.1,0.3-0.1,0.6-0.1,1v3.7h1V96c0-0.5,0.1-0.8,0.2-1c0.2-0.2,0.4-0.3,0.7-0.3c0.3,0,0.5,0.1,0.7,0.2
		c0.2,0.1,0.3,0.3,0.5,0.4v4.4h1V94z M80.7,98.9h-1.2V94h-1v4.9h-0.7v0.6l0.7,0.1v1.1c0,0.3,0,0.6,0.1,0.8c0.1,0.2,0.2,0.4,0.3,0.5
		s0.3,0.2,0.5,0.3s0.4,0.1,0.6,0.1c0.2,0,0.4,0,0.5-0.1c0.1-0.1,0.2-0.1,0.3-0.1l-0.2-0.8c0,0-0.1,0.1-0.2,0.1
		c-0.1,0-0.2,0.1-0.3,0.1c-0.2,0-0.4-0.1-0.5-0.2c-0.1-0.1-0.2-0.4-0.2-0.8v-1h1.3L80.7,98.9z M84.1,98.9h-1.2v-3.2
		c0-0.4,0.1-0.7,0.2-0.8c0.1-0.1,0.3-0.2,0.5-0.2c0.1,0,0.3,0,0.4,0.1c0.1,0,0.2,0.1,0.2,0.1l0.1-0.8c0,0-0.1-0.1-0.3-0.1
		c-0.2-0.1-0.4-0.1-0.6-0.1c-0.5,0-0.9,0.1-1.1,0.4c-0.2,0.3-0.4,0.7-0.4,1.4v3.3h-0.7v0.6l0.7,0.1l0.1,1.6h0.9v-1.6h1.4L84.1,98.9z
		 M87.7,98.9c0,0-0.1,0-0.2,0.1c-0.1,0-0.2,0-0.3,0c-0.3,0-0.5-0.1-0.7-0.2c-0.2-0.2-0.3-0.3-0.4-0.5V94h-1v5.7h0.9v-0.8h0
		c0,0.1,0.1,0.2,0.2,0.3s0.1,0.2,0.2,0.3s0.2,0.1,0.3,0.2c0.1,0,0.3,0.1,0.5,0.1c0.1,0,0.2,0,0.3,0c0.1,0,0.1,0,0.2-0.1L87.7,98.9z
		 M88.3,95.5c0,0.3,0.1,0.6,0.2,0.8s0.3,0.4,0.5,0.5c0.2,0.1,0.5,0.2,0.8,0.3c0.3,0.1,0.6,0.1,0.9,0.1H91v0.5c0,0.5-0.1,0.8-0.3,1
		C90.5,98.9,90.3,99,90,99c-0.3,0-0.5-0.1-0.7-0.2c-0.2-0.1-0.3-0.2-0.5-0.3l-0.4,0.6c0.1,0.1,0.1,0.1,0.2,0.2
		c0.1,0.1,0.2,0.2,0.4,0.2c0.1,0.1,0.3,0.1,0.5,0.2s0.4,0.1,0.6,0.1c0.6,0,1-0.2,1.3-0.5c0.3-0.3,0.5-0.8,0.5-1.6v-2.6
		c0-0.2,0-0.5,0-0.7c0-0.2,0-0.4,0-0.5h-0.9l0,0.6h0c0-0.1-0.1-0.2-0.1-0.2c-0.1-0.1-0.1-0.2-0.2-0.2c-0.1-0.1-0.2-0.1-0.3-0.2
		c-0.1-0.1-0.3-0.1-0.5-0.1c-0.2,0-0.4,0-0.6,0.1c-0.2,0.1-0.3,0.2-0.5,0.3c-0.1,0.1-0.2,0.3-0.3,0.5C88.3,95,88.3,95.2,88.3,95.5z
		 M90,94.7c0.1,0,0.3,0,0.4,0.1c0.1,0,0.2,0.1,0.3,0.1c0.1,0.1,0.1,0.1,0.2,0.2c0.1,0.1,0.1,0.1,0.1,0.2v1.3l-0.3,0
		c-0.5,0-0.8-0.1-1-0.2s-0.4-0.4-0.4-0.7c0-0.3,0.1-0.5,0.2-0.7C89.6,94.8,89.8,94.7,90,94.7z M97.5,99h-0.7c0.2-0.3,0.3-0.6,0.3-1
		c0-0.3,0-0.6-0.1-0.8c-0.1-0.2-0.2-0.4-0.4-0.6c-0.2-0.2-0.4-0.3-0.6-0.4C95.6,96,95.3,96,95,96c-0.1,0-0.1,0-0.2,0s-0.1,0-0.2,0
		c-0.1,0-0.2-0.1-0.3-0.2c-0.1-0.1-0.2-0.2-0.2-0.3c0-0.1,0-0.2,0.1-0.3c0.1-0.1,0.2-0.1,0.4-0.1h0.7c0.3,0,0.5,0,0.7-0.1
		c0.2-0.1,0.4-0.1,0.6-0.3c0.2-0.1,0.3-0.3,0.4-0.5s0.1-0.4,0.1-0.7c0-0.3-0.1-0.6-0.2-0.8c-0.1-0.3-0.3-0.5-0.6-0.7
		c-0.2-0.2-0.5-0.3-0.9-0.4c-0.3-0.1-0.7-0.2-1.1-0.2c-0.6,0-1.1,0.1-1.4,0.4c-0.3,0.3-0.5,0.6-0.5,1.1c0,0.2,0,0.4,0.1,0.6
		c0.1,0.2,0.2,0.3,0.3,0.4c0.1,0.1,0.2,0.2,0.3,0.3c0.1,0.1,0.2,0.1,0.3,0.2v0c-0.2,0.2-0.4,0.4-0.4,0.8c0,0.2,0,0.3,0.1,0.4
		c0.1,0.1,0.1,0.2,0.2,0.3c0.1,0.1,0.2,0.1,0.2,0.2c0.1,0,0.1,0.1,0.2,0.1v0c-0.3,0.1-0.5,0.3-0.7,0.6c-0.2,0.3-0.3,0.7-0.3,1.1
		c0,0.3,0.1,0.6,0.2,0.8c0.1,0.2,0.2,0.4,0.4,0.6s0.4,0.3,0.6,0.4c0.2,0.1,0.5,0.1,0.8,0.1s0.5,0,0.8-0.1h1.7L97.5,99z M94.8,94.2
		c-0.2,0-0.3,0-0.4,0c-0.1,0-0.1-0.1-0.2-0.1C94.1,94,94,93.9,94,93.9c-0.1-0.1-0.1-0.2-0.1-0.3c0-0.1-0.1-0.2-0.1-0.4
		c0-0.6,0.3-0.9,1-0.9c0.6,0,1,0.1,1.3,0.3c0.3,0.2,0.4,0.5,0.4,0.8c0,0.3-0.1,0.5-0.3,0.6c-0.2,0.1-0.4,0.2-0.7,0.2H94.8z
		 M96.1,97.9c0,0.4-0.1,0.7-0.3,0.9c-0.2,0.2-0.4,0.3-0.7,0.3c-0.3,0-0.5-0.1-0.7-0.3c-0.2-0.2-0.3-0.5-0.3-0.9
		c0-0.4,0.1-0.7,0.3-0.9c0.2-0.2,0.4-0.3,0.7-0.3c0.3,0,0.5,0.1,0.7,0.3C96,97.2,96.1,97.5,96.1,97.9z M101,98.9h-1.2v-3.2
		c0-0.4,0.1-0.7,0.2-0.8c0.1-0.1,0.3-0.2,0.5-0.2c0.1,0,0.3,0,0.4,0.1c0.1,0,0.2,0.1,0.2,0.1l0.1-0.8c0,0-0.1-0.1-0.3-0.1
		c-0.2-0.1-0.4-0.1-0.6-0.1c-0.5,0-0.9,0.1-1.1,0.4c-0.2,0.3-0.4,0.7-0.4,1.4v3.3h-0.7v0.6l0.7,0.1l0.1,1.6h0.9v-1.6h1.4L101,98.9z
		 M105.7,97.8c0-0.2,0-0.5,0-0.6c0-0.2,0-0.3,0-0.5h-2.9c0-0.7,0.2-1.2,0.4-1.5c0.3-0.3,0.6-0.5,1.1-0.5c0.2,0,0.3,0,0.5,0.1
		c0.1,0,0.3,0.1,0.4,0.1c0.1,0.1,0.2,0.1,0.2,0.2c0.1,0.1,0.1,0.1,0.1,0.1l0.4-0.7c0,0-0.1-0.1-0.2-0.2c-0.1-0.1-0.2-0.2-0.3-0.2
		c-0.1-0.1-0.3-0.1-0.5-0.2c-0.2-0.1-0.4-0.1-0.7-0.1c-0.4,0-0.7,0.1-1,0.2c-0.3,0.1-0.5,0.3-0.7,0.6c-0.2,0.2-0.4,0.6-0.5,1
		c-0.1,0.4-0.2,0.8-0.2,1.4c0,0.5,0.1,0.9,0.2,1.3c0.1,0.4,0.3,0.7,0.5,0.9s0.4,0.4,0.7,0.5c0.3,0.1,0.5,0.2,0.8,0.2
		c0.5,0,1-0.2,1.3-0.5C105.5,99,105.7,98.5,105.7,97.8z M103.9,99.1c-0.3,0-0.6-0.1-0.8-0.4c-0.2-0.3-0.3-0.7-0.4-1.2h2.1
		c0,0,0,0.1,0,0.2c0,0.1,0,0.2,0,0.2c0,0.4-0.1,0.7-0.2,0.9C104.4,99,104.2,99.1,103.9,99.1z M109.2,96.8c0,0.6,0.1,1.1,0.2,1.5
		c0.2,0.4,0.3,0.7,0.6,0.9c0.2,0.2,0.5,0.4,0.8,0.5c0.3,0.1,0.6,0.1,0.9,0.1c0.2,0,0.3,0,0.5,0c0.1,0,0.2-0.1,0.3-0.1v2.7l1,0.1V94
		h-0.9v0.6h0c0,0-0.1-0.1-0.1-0.2c-0.1-0.1-0.2-0.2-0.3-0.2c-0.1-0.1-0.2-0.2-0.4-0.2c-0.2-0.1-0.4-0.1-0.6-0.1
		c-0.3,0-0.5,0.1-0.8,0.2c-0.2,0.1-0.5,0.3-0.6,0.5c-0.2,0.2-0.3,0.5-0.4,0.9C109.3,95.8,109.2,96.2,109.2,96.8z M111.5,94.7
		c0.2,0,0.3,0,0.4,0.1c0.1,0,0.2,0.1,0.3,0.1c0.1,0.1,0.2,0.1,0.2,0.2c0.1,0.1,0.1,0.1,0.1,0.2v3.5c-0.1,0.1-0.2,0.1-0.3,0.1
		c-0.1,0-0.3,0.1-0.4,0.1c-0.2,0-0.4,0-0.6-0.1c-0.2-0.1-0.4-0.2-0.5-0.4c-0.1-0.2-0.3-0.4-0.3-0.7c-0.1-0.3-0.1-0.6-0.1-1
		c0-0.4,0-0.7,0.1-1c0.1-0.3,0.2-0.5,0.3-0.6c0.1-0.2,0.3-0.3,0.4-0.4C111.1,94.7,111.3,94.7,111.5,94.7z M118.6,97.8
		c0-0.2,0-0.5,0-0.6c0-0.2,0-0.3,0-0.5h-2.9c0-0.7,0.2-1.2,0.4-1.5c0.3-0.3,0.6-0.5,1.1-0.5c0.2,0,0.3,0,0.5,0.1
		c0.1,0,0.3,0.1,0.4,0.1c0.1,0.1,0.2,0.1,0.2,0.2c0.1,0.1,0.1,0.1,0.1,0.1l0.4-0.7c0,0-0.1-0.1-0.2-0.2c-0.1-0.1-0.2-0.2-0.3-0.2
		c-0.1-0.1-0.3-0.1-0.5-0.2c-0.2-0.1-0.4-0.1-0.7-0.1c-0.4,0-0.7,0.1-1,0.2c-0.3,0.1-0.5,0.3-0.7,0.6c-0.2,0.2-0.4,0.6-0.5,1
		c-0.1,0.4-0.2,0.8-0.2,1.4c0,0.5,0.1,0.9,0.2,1.3c0.1,0.4,0.3,0.7,0.5,0.9s0.4,0.4,0.7,0.5c0.3,0.1,0.5,0.2,0.8,0.2
		c0.5,0,1-0.2,1.3-0.5C118.5,99,118.6,98.5,118.6,97.8z M116.8,99.1c-0.3,0-0.6-0.1-0.8-0.4s-0.3-0.7-0.4-1.2h2.1c0,0,0,0.1,0,0.2
		c0,0.1,0,0.2,0,0.2c0,0.4-0.1,0.7-0.2,0.9C117.4,99,117.1,99.1,116.8,99.1z M122.4,98.9c0,0-0.1,0-0.2,0.1c-0.1,0-0.2,0-0.3,0
		c-0.3,0-0.5-0.1-0.7-0.2c-0.2-0.2-0.3-0.3-0.4-0.5V94h-1v5.7h0.9v-0.8h0c0,0.1,0.1,0.2,0.2,0.3c0.1,0.1,0.1,0.2,0.2,0.3
		s0.2,0.1,0.3,0.2c0.1,0,0.3,0.1,0.5,0.1c0.1,0,0.2,0,0.3,0c0.1,0,0.1,0,0.2-0.1L122.4,98.9z M130.2,100.1c0-0.3,0-0.5-0.1-0.7
		c-0.1-0.2-0.2-0.4-0.3-0.6c-0.1-0.2-0.3-0.3-0.4-0.4c-0.2-0.1-0.3-0.2-0.5-0.2v0c0.2,0,0.4-0.1,0.6-0.2c0.2-0.1,0.3-0.2,0.5-0.4
		c0.1-0.2,0.2-0.4,0.3-0.6c0.1-0.2,0.1-0.5,0.1-0.7c0-0.3-0.1-0.6-0.2-0.9s-0.3-0.5-0.5-0.7c-0.2-0.2-0.5-0.4-0.9-0.5
		c-0.4-0.1-0.8-0.2-1.3-0.2h-1.7v8.2h1.6c0.5,0,0.9,0,1.2-0.1c0.3-0.1,0.6-0.2,0.9-0.4c0.2-0.2,0.4-0.4,0.5-0.7
		C130.1,100.7,130.2,100.4,130.2,100.1z M129.1,100.1c0,0.4-0.1,0.7-0.4,0.9c-0.3,0.2-0.7,0.4-1.3,0.4h-0.5v-2.8h0.5
		c0.6,0,1,0.1,1.3,0.4C129,99.2,129.1,99.6,129.1,100.1z M129.3,96.3c0,0.4-0.1,0.8-0.4,1.1c-0.3,0.3-0.7,0.4-1.2,0.4h-0.7v-2.9h0.6
		c0.6,0,1.1,0.1,1.3,0.4C129.1,95.5,129.3,95.8,129.3,96.3z M135.6,94h-0.9v0.6h0c0,0-0.1-0.1-0.2-0.2c-0.1-0.1-0.2-0.2-0.3-0.3
		c-0.1-0.1-0.3-0.2-0.4-0.2s-0.4-0.1-0.6-0.1c-0.3,0-0.5,0-0.7,0.1c-0.2,0.1-0.4,0.2-0.5,0.4c-0.1,0.2-0.3,0.4-0.3,0.6
		c-0.1,0.3-0.1,0.6-0.1,1v3.7h1V96c0-0.5,0.1-0.8,0.2-1c0.2-0.2,0.4-0.3,0.7-0.3c0.3,0,0.5,0.1,0.7,0.2c0.2,0.1,0.3,0.3,0.5,0.4v4.4
		h1V94z M140.2,94v3.7c0,0.5-0.1,0.8-0.2,1c-0.2,0.2-0.4,0.3-0.7,0.3c-0.3,0-0.5-0.1-0.7-0.2c-0.2-0.1-0.3-0.3-0.5-0.4V94h-1v5.7
		h0.9v-0.6h0c0,0,0.1,0.1,0.2,0.2c0.1,0.1,0.2,0.2,0.3,0.3c0.1,0.1,0.3,0.2,0.5,0.2s0.4,0.1,0.6,0.1c0.3,0,0.5,0,0.7-0.1
		c0.2-0.1,0.4-0.2,0.5-0.4c0.1-0.2,0.3-0.4,0.3-0.6c0.1-0.3,0.1-0.6,0.1-1V94H140.2z M142.4,96.8c0,0.6,0.1,1.1,0.2,1.5
		c0.2,0.4,0.3,0.7,0.6,0.9c0.2,0.2,0.5,0.4,0.8,0.5c0.3,0.1,0.6,0.1,0.9,0.1c0.2,0,0.3,0,0.5,0c0.1,0,0.2-0.1,0.3-0.1v2.7l1,0.1V94
		h-0.9v0.6h0c0,0-0.1-0.1-0.1-0.2c-0.1-0.1-0.2-0.2-0.3-0.2c-0.1-0.1-0.2-0.2-0.4-0.2c-0.2-0.1-0.4-0.1-0.6-0.1
		c-0.3,0-0.5,0.1-0.8,0.2c-0.2,0.1-0.5,0.3-0.6,0.5c-0.2,0.2-0.3,0.5-0.4,0.9C142.4,95.8,142.4,96.2,142.4,96.8z M144.6,94.7
		c0.2,0,0.3,0,0.4,0.1c0.1,0,0.2,0.1,0.3,0.1c0.1,0.1,0.2,0.1,0.2,0.2c0.1,0.1,0.1,0.1,0.1,0.2v3.5c-0.1,0.1-0.2,0.1-0.3,0.1
		c-0.1,0-0.3,0.1-0.4,0.1c-0.2,0-0.4,0-0.6-0.1c-0.2-0.1-0.4-0.2-0.5-0.4c-0.1-0.2-0.3-0.4-0.3-0.7c-0.1-0.3-0.1-0.6-0.1-1
		c0-0.4,0-0.7,0.1-1c0.1-0.3,0.2-0.5,0.3-0.6c0.1-0.2,0.3-0.3,0.4-0.4C144.3,94.7,144.5,94.7,144.6,94.7z M151.8,97.8
		c0-0.2,0-0.5,0-0.6c0-0.2,0-0.3,0-0.5h-2.9c0-0.7,0.2-1.2,0.4-1.5c0.3-0.3,0.6-0.5,1.1-0.5c0.2,0,0.3,0,0.5,0.1
		c0.1,0,0.3,0.1,0.4,0.1c0.1,0.1,0.2,0.1,0.2,0.2c0.1,0.1,0.1,0.1,0.1,0.1l0.4-0.7c0,0-0.1-0.1-0.2-0.2c-0.1-0.1-0.2-0.2-0.3-0.2
		c-0.1-0.1-0.3-0.1-0.5-0.2c-0.2-0.1-0.4-0.1-0.7-0.1c-0.4,0-0.7,0.1-1,0.2c-0.3,0.1-0.5,0.3-0.7,0.6c-0.2,0.2-0.4,0.6-0.5,1
		c-0.1,0.4-0.2,0.8-0.2,1.4c0,0.5,0.1,0.9,0.2,1.3c0.1,0.4,0.3,0.7,0.5,0.9s0.4,0.4,0.7,0.5c0.3,0.1,0.5,0.2,0.8,0.2
		c0.5,0,1-0.2,1.3-0.5C151.7,99,151.8,98.5,151.8,97.8z M150,99.1c-0.3,0-0.6-0.1-0.8-0.4s-0.3-0.7-0.4-1.2h2.1c0,0,0,0.1,0,0.2
		c0,0.1,0,0.2,0,0.2c0,0.4-0.1,0.7-0.2,0.9C150.5,99,150.3,99.1,150,99.1z M155.6,98.6c-0.1,0.1-0.2,0.2-0.3,0.3
		c-0.2,0.1-0.4,0.2-0.7,0.2c-0.3,0-0.4-0.1-0.6-0.2c-0.1-0.1-0.2-0.3-0.2-0.4c0-0.2,0.1-0.4,0.2-0.5c0.1-0.1,0.3-0.3,0.6-0.4
		l0.4-0.2c0.4-0.2,0.7-0.5,0.9-0.7c0.2-0.3,0.3-0.6,0.3-1c0-0.5-0.2-0.8-0.5-1.1c-0.3-0.3-0.8-0.5-1.4-0.5c-0.2,0-0.4,0-0.6,0.1
		s-0.3,0.1-0.5,0.2c-0.1,0.1-0.2,0.1-0.3,0.2c-0.1,0.1-0.2,0.1-0.2,0.2l0.5,0.8c0,0,0.1-0.1,0.2-0.2c0.1-0.1,0.1-0.1,0.2-0.2
		c0.1-0.1,0.2-0.1,0.3-0.1c0.1,0,0.3-0.1,0.4-0.1c0.3,0,0.5,0.1,0.7,0.2c0.2,0.1,0.2,0.3,0.2,0.5c0,0.1,0,0.3-0.1,0.4
		c0,0.1-0.1,0.2-0.2,0.3s-0.2,0.2-0.3,0.2c-0.1,0.1-0.2,0.2-0.4,0.2l-0.4,0.2c-0.4,0.2-0.6,0.5-0.8,0.7c-0.2,0.3-0.3,0.6-0.3,1
		c0,0.2,0,0.4,0.1,0.6c0.1,0.2,0.2,0.3,0.4,0.5c0.2,0.1,0.3,0.2,0.5,0.3c0.2,0.1,0.4,0.1,0.6,0.1c0.2,0,0.4,0,0.6-0.1
		c0.2,0,0.3-0.1,0.4-0.2c0.1-0.1,0.2-0.1,0.3-0.2c0.1-0.1,0.1-0.1,0.2-0.2L155.6,98.6z M159.8,98.9c0,0-0.1,0-0.2,0.1
		c-0.1,0-0.2,0-0.3,0c-0.3,0-0.5-0.1-0.7-0.2c-0.2-0.2-0.3-0.3-0.4-0.5V94h-1v5.7h0.9v-0.8h0c0,0.1,0.1,0.2,0.2,0.3
		c0.1,0.1,0.1,0.2,0.2,0.3s0.2,0.1,0.3,0.2c0.1,0,0.3,0.1,0.5,0.1c0.1,0,0.2,0,0.3,0c0.1,0,0.1,0,0.2-0.1L159.8,98.9z M164.2,97.8
		c0-0.2,0-0.5,0-0.6c0-0.2,0-0.3,0-0.5h-2.9c0-0.7,0.2-1.2,0.4-1.5c0.3-0.3,0.6-0.5,1.1-0.5c0.2,0,0.3,0,0.5,0.1
		c0.1,0,0.3,0.1,0.4,0.1c0.1,0.1,0.2,0.1,0.2,0.2c0.1,0.1,0.1,0.1,0.1,0.1l0.4-0.7c0,0-0.1-0.1-0.2-0.2c-0.1-0.1-0.2-0.2-0.3-0.2
		c-0.1-0.1-0.3-0.1-0.5-0.2c-0.2-0.1-0.4-0.1-0.7-0.1c-0.4,0-0.7,0.1-1,0.2c-0.3,0.1-0.5,0.3-0.7,0.6c-0.2,0.2-0.4,0.6-0.5,1
		c-0.1,0.4-0.2,0.8-0.2,1.4c0,0.5,0.1,0.9,0.2,1.3c0.1,0.4,0.3,0.7,0.5,0.9s0.4,0.4,0.7,0.5c0.3,0.1,0.5,0.2,0.8,0.2
		c0.5,0,1-0.2,1.3-0.5C164.1,99,164.2,98.5,164.2,97.8z M162.4,99.1c-0.3,0-0.6-0.1-0.8-0.4s-0.3-0.7-0.4-1.2h2.1c0,0,0,0.1,0,0.2
		c0,0.1,0,0.2,0,0.2c0,0.4-0.1,0.7-0.2,0.9C163,99,162.7,99.1,162.4,99.1z M169.6,99h-0.7c0.2-0.3,0.3-0.6,0.3-1
		c0-0.3,0-0.6-0.1-0.8c-0.1-0.2-0.2-0.4-0.4-0.6c-0.2-0.2-0.4-0.3-0.6-0.4c-0.2-0.1-0.5-0.1-0.8-0.1c-0.1,0-0.1,0-0.2,0
		c0,0-0.1,0-0.2,0c-0.1,0-0.2-0.1-0.3-0.2c-0.1-0.1-0.2-0.2-0.2-0.3c0-0.1,0-0.2,0.1-0.3c0.1-0.1,0.2-0.1,0.4-0.1h0.7
		c0.3,0,0.5,0,0.7-0.1c0.2-0.1,0.4-0.1,0.6-0.3c0.2-0.1,0.3-0.3,0.4-0.5c0.1-0.2,0.1-0.4,0.1-0.7c0-0.3-0.1-0.6-0.2-0.8
		c-0.1-0.3-0.3-0.5-0.6-0.7c-0.2-0.2-0.5-0.3-0.9-0.4c-0.3-0.1-0.7-0.2-1.1-0.2c-0.6,0-1.1,0.1-1.4,0.4c-0.3,0.3-0.5,0.6-0.5,1.1
		c0,0.2,0,0.4,0.1,0.6c0.1,0.2,0.2,0.3,0.3,0.4c0.1,0.1,0.2,0.2,0.3,0.3c0.1,0.1,0.2,0.1,0.3,0.2v0c-0.2,0.2-0.4,0.4-0.4,0.8
		c0,0.2,0,0.3,0.1,0.4c0.1,0.1,0.1,0.2,0.2,0.3c0.1,0.1,0.2,0.1,0.2,0.2c0.1,0,0.1,0.1,0.2,0.1v0c-0.3,0.1-0.5,0.3-0.7,0.6
		c-0.2,0.3-0.3,0.7-0.3,1.1c0,0.3,0.1,0.6,0.2,0.8c0.1,0.2,0.2,0.4,0.4,0.6c0.2,0.2,0.4,0.3,0.6,0.4c0.2,0.1,0.5,0.1,0.8,0.1
		c0.3,0,0.5,0,0.8-0.1h1.7L169.6,99z M167,94.2c-0.2,0-0.3,0-0.4,0c-0.1,0-0.1-0.1-0.2-0.1c-0.1-0.1-0.1-0.1-0.2-0.2
		s-0.1-0.2-0.1-0.3c0-0.1-0.1-0.2-0.1-0.4c0-0.6,0.3-0.9,1-0.9c0.6,0,1,0.1,1.3,0.3c0.3,0.2,0.4,0.5,0.4,0.8c0,0.3-0.1,0.5-0.3,0.6
		c-0.2,0.1-0.4,0.2-0.7,0.2H167z M168.2,97.9c0,0.4-0.1,0.7-0.3,0.9c-0.2,0.2-0.4,0.3-0.7,0.3c-0.3,0-0.5-0.1-0.7-0.3
		c-0.2-0.2-0.3-0.5-0.3-0.9c0-0.4,0.1-0.7,0.3-0.9c0.2-0.2,0.4-0.3,0.7-0.3c0.3,0,0.5,0.1,0.7,0.3C168.1,97.2,168.2,97.5,168.2,97.9
		z M171.7,94h-1v5.7h1V94z M171.2,101.1c-0.2,0-0.4,0.1-0.5,0.2s-0.2,0.3-0.2,0.5c0,0.2,0.1,0.4,0.2,0.5s0.3,0.2,0.5,0.2
		c0.2,0,0.3-0.1,0.5-0.2c0.1-0.1,0.2-0.3,0.2-0.5c0-0.2-0.1-0.4-0.2-0.5C171.6,101.2,171.4,101.1,171.2,101.1z M176.8,97.8
		c0-0.2,0-0.5,0-0.6c0-0.2,0-0.3,0-0.5h-2.9c0-0.7,0.2-1.2,0.4-1.5c0.3-0.3,0.6-0.5,1.1-0.5c0.2,0,0.3,0,0.5,0.1
		c0.1,0,0.3,0.1,0.4,0.1c0.1,0.1,0.2,0.1,0.2,0.2c0.1,0.1,0.1,0.1,0.1,0.1l0.4-0.7c0,0-0.1-0.1-0.2-0.2c-0.1-0.1-0.2-0.2-0.3-0.2
		c-0.1-0.1-0.3-0.1-0.5-0.2c-0.2-0.1-0.4-0.1-0.7-0.1c-0.4,0-0.7,0.1-1,0.2c-0.3,0.1-0.5,0.3-0.7,0.6c-0.2,0.2-0.4,0.6-0.5,1
		c-0.1,0.4-0.2,0.8-0.2,1.4c0,0.5,0.1,0.9,0.2,1.3c0.1,0.4,0.3,0.7,0.5,0.9c0.2,0.2,0.4,0.4,0.7,0.5c0.3,0.1,0.5,0.2,0.8,0.2
		c0.5,0,1-0.2,1.3-0.5C176.7,99,176.8,98.5,176.8,97.8z M175,99.1c-0.3,0-0.6-0.1-0.8-0.4s-0.3-0.7-0.4-1.2h2.1c0,0,0,0.1,0,0.2
		c0,0.1,0,0.2,0,0.2c0,0.4-0.1,0.7-0.2,0.9C175.5,99,175.3,99.1,175,99.1z M180.6,98.9c0,0-0.1,0-0.2,0.1c-0.1,0-0.2,0-0.3,0
		c-0.3,0-0.5-0.1-0.7-0.2c-0.2-0.2-0.3-0.3-0.4-0.5V94h-1v5.7h0.9v-0.8h0c0,0.1,0.1,0.2,0.2,0.3c0.1,0.1,0.1,0.2,0.2,0.3
		s0.2,0.1,0.3,0.2c0.1,0,0.3,0.1,0.5,0.1c0.1,0,0.2,0,0.3,0c0.1,0,0.1,0,0.2-0.1L180.6,98.9z M185.6,94h-0.9v0.6h0
		c0,0-0.1-0.1-0.2-0.2c-0.1-0.1-0.2-0.2-0.3-0.3c-0.1-0.1-0.3-0.2-0.4-0.2s-0.4-0.1-0.6-0.1c-0.3,0-0.5,0-0.7,0.1
		c-0.2,0.1-0.4,0.2-0.5,0.4c-0.1,0.2-0.3,0.4-0.3,0.6c-0.1,0.3-0.1,0.6-0.1,1v3.7h1V96c0-0.5,0.1-0.8,0.2-1c0.2-0.2,0.4-0.3,0.7-0.3
		c0.3,0,0.5,0.1,0.7,0.2c0.2,0.1,0.3,0.3,0.5,0.4v4.4h1V94z M190.2,94v3.7c0,0.5-0.1,0.8-0.2,1c-0.2,0.2-0.4,0.3-0.7,0.3
		c-0.3,0-0.5-0.1-0.7-0.2c-0.2-0.1-0.3-0.3-0.5-0.4V94h-1v5.7h0.9v-0.6h0c0,0,0.1,0.1,0.2,0.2c0.1,0.1,0.2,0.2,0.3,0.3
		c0.1,0.1,0.3,0.2,0.5,0.2s0.4,0.1,0.6,0.1c0.3,0,0.5,0,0.7-0.1c0.2-0.1,0.4-0.2,0.5-0.4c0.1-0.2,0.3-0.4,0.3-0.6
		c0.1-0.3,0.1-0.6,0.1-1V94H190.2z M196.7,99h-0.7c0.2-0.3,0.3-0.6,0.3-1c0-0.3,0-0.6-0.1-0.8c-0.1-0.2-0.2-0.4-0.4-0.6
		c-0.2-0.2-0.4-0.3-0.6-0.4c-0.2-0.1-0.5-0.1-0.8-0.1c-0.1,0-0.1,0-0.2,0c0,0-0.1,0-0.2,0c-0.1,0-0.2-0.1-0.3-0.2
		c-0.1-0.1-0.2-0.2-0.2-0.3c0-0.1,0-0.2,0.1-0.3c0.1-0.1,0.2-0.1,0.4-0.1h0.7c0.3,0,0.5,0,0.7-0.1c0.2-0.1,0.4-0.1,0.6-0.3
		c0.2-0.1,0.3-0.3,0.4-0.5s0.1-0.4,0.1-0.7c0-0.3-0.1-0.6-0.2-0.8s-0.3-0.5-0.6-0.7c-0.2-0.2-0.5-0.3-0.9-0.4
		c-0.3-0.1-0.7-0.2-1.1-0.2c-0.6,0-1.1,0.1-1.4,0.4c-0.3,0.3-0.5,0.6-0.5,1.1c0,0.2,0,0.4,0.1,0.6c0.1,0.2,0.2,0.3,0.3,0.4
		c0.1,0.1,0.2,0.2,0.3,0.3c0.1,0.1,0.2,0.1,0.3,0.2v0c-0.2,0.2-0.4,0.4-0.4,0.8c0,0.2,0,0.3,0.1,0.4c0.1,0.1,0.1,0.2,0.2,0.3
		c0.1,0.1,0.2,0.1,0.2,0.2c0.1,0,0.1,0.1,0.2,0.1v0c-0.3,0.1-0.5,0.3-0.7,0.6c-0.2,0.3-0.3,0.7-0.3,1.1c0,0.3,0.1,0.6,0.2,0.8
		c0.1,0.2,0.2,0.4,0.4,0.6s0.4,0.3,0.6,0.4c0.2,0.1,0.5,0.1,0.8,0.1s0.5,0,0.8-0.1h1.7L196.7,99z M194,94.2c-0.2,0-0.3,0-0.4,0
		c-0.1,0-0.1-0.1-0.2-0.1c-0.1-0.1-0.1-0.1-0.2-0.2c-0.1-0.1-0.1-0.2-0.1-0.3c0-0.1-0.1-0.2-0.1-0.4c0-0.6,0.3-0.9,1-0.9
		c0.6,0,1,0.1,1.3,0.3c0.3,0.2,0.4,0.5,0.4,0.8c0,0.3-0.1,0.5-0.3,0.6c-0.2,0.1-0.4,0.2-0.7,0.2H194z M195.3,97.9
		c0,0.4-0.1,0.7-0.3,0.9c-0.2,0.2-0.4,0.3-0.7,0.3c-0.3,0-0.5-0.1-0.7-0.3c-0.2-0.2-0.3-0.5-0.3-0.9c0-0.4,0.1-0.7,0.3-0.9
		c0.2-0.2,0.4-0.3,0.7-0.3c0.3,0,0.5,0.1,0.7,0.3C195.2,97.2,195.3,97.5,195.3,97.9z M42.6,86.9h-1.2V82h-1v4.9h-0.7v0.6l0.7,0.1
		v1.1c0,0.3,0,0.6,0.1,0.8s0.2,0.4,0.3,0.5c0.1,0.1,0.3,0.2,0.5,0.3s0.4,0.1,0.6,0.1c0.2,0,0.4,0,0.5-0.1c0.1-0.1,0.2-0.1,0.3-0.1
		l-0.2-0.8c0,0-0.1,0.1-0.2,0.1c-0.1,0-0.2,0.1-0.3,0.1c-0.2,0-0.4-0.1-0.5-0.2s-0.2-0.4-0.2-0.8v-1h1.3L42.6,86.9z M47.6,82h-0.9
		v0.6h0c0,0-0.1-0.1-0.2-0.2c-0.1-0.1-0.2-0.2-0.3-0.3C46.1,82.1,46,82,45.8,82s-0.4-0.1-0.6-0.1c-0.3,0-0.5,0-0.7,0.1
		c-0.2,0.1-0.4,0.2-0.5,0.4s-0.3,0.4-0.3,0.6c-0.1,0.3-0.1,0.6-0.1,1v3.7h1V84c0-0.5,0.1-0.8,0.2-1c0.2-0.2,0.4-0.3,0.7-0.3
		c0.3,0,0.5,0.1,0.7,0.2c0.2,0.1,0.3,0.3,0.5,0.4v4.4h1V82z M45.2,89.4c0-0.2-0.1-0.3-0.2-0.4c-0.1-0.1-0.2-0.2-0.4-0.2
		s-0.3,0.1-0.4,0.2s-0.2,0.3-0.2,0.4c0,0.2,0.1,0.3,0.2,0.4s0.2,0.2,0.4,0.2s0.3-0.1,0.4-0.2C45.2,89.7,45.2,89.5,45.2,89.4z
		 M47.1,89.4c0-0.2-0.1-0.3-0.2-0.4s-0.2-0.2-0.4-0.2s-0.3,0.1-0.4,0.2c-0.1,0.1-0.2,0.3-0.2,0.4c0,0.2,0.1,0.3,0.2,0.4
		c0.1,0.1,0.2,0.2,0.4,0.2s0.3-0.1,0.4-0.2S47.1,89.5,47.1,89.4z M51.6,86.9c0,0-0.1,0-0.2,0.1c-0.1,0-0.2,0-0.3,0
		c-0.3,0-0.5-0.1-0.7-0.2c-0.2-0.2-0.3-0.3-0.4-0.5V82h-1v5.7h0.9v-0.8h0c0,0.1,0.1,0.2,0.2,0.3s0.1,0.2,0.2,0.3s0.2,0.1,0.3,0.2
		c0.1,0,0.3,0.1,0.5,0.1c0.1,0,0.2,0,0.3,0c0.1,0,0.1,0,0.2-0.1L51.6,86.9z M57.5,86.2l2.8-4.2H59l-2.4,3.7H56V82h-1v8.2h1v-3.7h0.6
		l2.3,3.7h1.2L57.5,86.2z M65,82h-0.9v0.6h0c0,0-0.1-0.1-0.2-0.2c-0.1-0.1-0.2-0.2-0.3-0.3c-0.1-0.1-0.3-0.2-0.4-0.2
		c-0.2-0.1-0.4-0.1-0.6-0.1c-0.3,0-0.5,0-0.7,0.1c-0.2,0.1-0.4,0.2-0.5,0.4S61.1,82.7,61,83c-0.1,0.3-0.1,0.6-0.1,1v3.7h1V84
		c0-0.5,0.1-0.8,0.2-1c0.2-0.2,0.4-0.3,0.7-0.3c0.3,0,0.5,0.1,0.7,0.2c0.2,0.1,0.3,0.3,0.5,0.4v4.4h1V82z M67.4,83.3
		c0-0.2,0-0.4,0.1-0.5c0.1-0.1,0.2-0.1,0.4-0.1c0.1,0,0.2,0,0.2,0s0.1,0,0.1,0l0.1-0.7c0,0-0.1-0.1-0.3-0.1s-0.3-0.1-0.5-0.1
		c-0.3,0-0.6,0.1-0.8,0.3c-0.2,0.2-0.3,0.6-0.3,1.1v7.2l1,0.1V83.3z M71.6,86.9h-1.2v-3.2c0-0.4,0.1-0.7,0.2-0.8
		c0.1-0.1,0.3-0.2,0.5-0.2c0.1,0,0.3,0,0.4,0.1c0.1,0,0.2,0.1,0.2,0.1l0.1-0.8c0,0-0.1-0.1-0.3-0.1c-0.2-0.1-0.4-0.1-0.6-0.1
		c-0.5,0-0.9,0.1-1.1,0.4c-0.2,0.3-0.4,0.7-0.4,1.4v3.3h-0.7v0.6l0.7,0.1l0.1,1.6h0.9v-1.6h1.4L71.6,86.9z M76.7,82h-0.9v0.6h0
		c0,0-0.1-0.1-0.2-0.2c-0.1-0.1-0.2-0.2-0.3-0.3c-0.1-0.1-0.3-0.2-0.4-0.2s-0.4-0.1-0.6-0.1c-0.3,0-0.5,0-0.7,0.1
		c-0.2,0.1-0.4,0.2-0.5,0.4c-0.1,0.2-0.3,0.4-0.3,0.6c-0.1,0.3-0.1,0.6-0.1,1v3.7h1V84c0-0.5,0.1-0.8,0.2-1c0.2-0.2,0.4-0.3,0.7-0.3
		c0.3,0,0.5,0.1,0.7,0.2c0.2,0.1,0.3,0.3,0.5,0.4v4.4h1V82z M80.7,86.9c0,0-0.1,0-0.2,0.1c-0.1,0-0.2,0-0.3,0
		c-0.3,0-0.5-0.1-0.7-0.2c-0.2-0.2-0.3-0.3-0.4-0.5V82h-1v5.7H79v-0.8h0c0,0.1,0.1,0.2,0.2,0.3s0.1,0.2,0.2,0.3s0.2,0.1,0.3,0.2
		c0.1,0,0.3,0.1,0.5,0.1c0.1,0,0.2,0,0.3,0c0.1,0,0.1,0,0.2-0.1L80.7,86.9z M87.9,82H87v0.6h0c0,0-0.1-0.1-0.2-0.2
		c-0.1-0.1-0.2-0.2-0.3-0.3c-0.1-0.1-0.3-0.2-0.4-0.2s-0.4-0.1-0.6-0.1c-0.3,0-0.5,0-0.7,0.1c-0.2,0.1-0.4,0.2-0.5,0.4
		S84,82.7,84,83c-0.1,0.3-0.1,0.6-0.1,1v3.7h1V84c0-0.5,0.1-0.8,0.2-1c0.2-0.2,0.4-0.3,0.7-0.3c0.3,0,0.5,0.1,0.7,0.2
		c0.2,0.1,0.3,0.3,0.5,0.4v4.4h1V82z M92.5,82v3.7c0,0.5-0.1,0.8-0.2,1c-0.2,0.2-0.4,0.3-0.7,0.3c-0.3,0-0.5-0.1-0.7-0.2
		c-0.2-0.1-0.3-0.3-0.5-0.4V82h-1v5.7h0.9v-0.6h0c0,0,0.1,0.1,0.2,0.2c0.1,0.1,0.2,0.2,0.3,0.3c0.1,0.1,0.3,0.2,0.5,0.2
		s0.4,0.1,0.6,0.1c0.3,0,0.5,0,0.7-0.1c0.2-0.1,0.4-0.2,0.5-0.4s0.3-0.4,0.3-0.6c0.1-0.3,0.1-0.6,0.1-1V82H92.5z M94.6,84.8
		c0,0.6,0.1,1.1,0.2,1.5c0.2,0.4,0.3,0.7,0.6,0.9c0.2,0.2,0.5,0.4,0.8,0.5c0.3,0.1,0.6,0.1,0.9,0.1c0.2,0,0.3,0,0.5,0
		c0.1,0,0.2-0.1,0.3-0.1v2.7l1,0.1V82H98v0.6h0c0,0-0.1-0.1-0.1-0.2s-0.2-0.2-0.3-0.2c-0.1-0.1-0.2-0.2-0.4-0.2
		c-0.2-0.1-0.4-0.1-0.6-0.1c-0.3,0-0.5,0.1-0.8,0.2c-0.2,0.1-0.5,0.3-0.6,0.5c-0.2,0.2-0.3,0.5-0.4,0.9
		C94.7,83.8,94.6,84.2,94.6,84.8z M96.9,82.7c0.2,0,0.3,0,0.4,0.1c0.1,0,0.2,0.1,0.3,0.1c0.1,0.1,0.2,0.1,0.2,0.2
		c0.1,0.1,0.1,0.1,0.1,0.2v3.5c-0.1,0.1-0.2,0.1-0.3,0.1c-0.1,0-0.3,0.1-0.4,0.1c-0.2,0-0.4,0-0.6-0.1c-0.2-0.1-0.4-0.2-0.5-0.4
		s-0.3-0.4-0.3-0.7c-0.1-0.3-0.1-0.6-0.1-1c0-0.4,0-0.7,0.1-1c0.1-0.3,0.2-0.5,0.3-0.6c0.1-0.2,0.3-0.3,0.4-0.4
		C96.5,82.7,96.7,82.7,96.9,82.7z M109.9,90.2V82h-1v3.9c0,0.2,0,0.5,0,0.7c0,0.2,0,0.5,0,0.7c0,0.2,0,0.4,0,0.5c0,0.2,0,0.3,0,0.4
		h0c0-0.2-0.1-0.5-0.2-0.9c-0.1-0.4-0.3-0.8-0.4-1.3l-1.4-4h-0.8l-1.4,4c-0.2,0.5-0.3,0.9-0.4,1.3c-0.1,0.4-0.2,0.7-0.2,0.9h0
		c0-0.1,0-0.2,0-0.4c0-0.2,0-0.3,0-0.5c0-0.2,0-0.4,0-0.7c0-0.2,0-0.5,0-0.7V82h-1v8.2h1.2l1.9-5.7c0.1-0.3,0.2-0.5,0.2-0.8
		c0.1-0.2,0.1-0.5,0.1-0.6h0c0,0.2,0,0.4,0.1,0.6c0.1,0.2,0.1,0.5,0.2,0.8l1.9,5.7H109.9z M115.2,85.8c0-0.2,0-0.5,0-0.6
		c0-0.2,0-0.3,0-0.5h-2.9c0-0.7,0.2-1.2,0.4-1.5c0.3-0.3,0.6-0.5,1.1-0.5c0.2,0,0.3,0,0.5,0.1s0.3,0.1,0.4,0.1
		c0.1,0.1,0.2,0.1,0.2,0.2c0.1,0.1,0.1,0.1,0.1,0.1l0.4-0.7c0,0-0.1-0.1-0.2-0.2c-0.1-0.1-0.2-0.2-0.3-0.2c-0.1-0.1-0.3-0.1-0.5-0.2
		s-0.4-0.1-0.7-0.1c-0.4,0-0.7,0.1-1,0.2c-0.3,0.1-0.5,0.3-0.7,0.6c-0.2,0.2-0.4,0.6-0.5,1c-0.1,0.4-0.2,0.8-0.2,1.4
		c0,0.5,0.1,0.9,0.2,1.3c0.1,0.4,0.3,0.7,0.5,0.9c0.2,0.2,0.4,0.4,0.7,0.5c0.3,0.1,0.5,0.2,0.8,0.2c0.5,0,1-0.2,1.3-0.5
		C115.1,87,115.2,86.5,115.2,85.8z M113.4,87.1c-0.3,0-0.6-0.1-0.8-0.4s-0.3-0.7-0.4-1.2h2.1c0,0,0,0.1,0,0.2c0,0.1,0,0.2,0,0.2
		c0,0.4-0.1,0.7-0.2,0.9C114,87,113.7,87.1,113.4,87.1z M116.3,84.8c0,0.6,0.1,1.1,0.2,1.5c0.2,0.4,0.3,0.7,0.6,0.9
		c0.2,0.2,0.5,0.4,0.8,0.5c0.3,0.1,0.6,0.1,0.9,0.1c0.2,0,0.3,0,0.5,0c0.1,0,0.2-0.1,0.3-0.1v2.7l1,0.1V82h-0.9v0.6h0
		c0,0-0.1-0.1-0.1-0.2c-0.1-0.1-0.2-0.2-0.3-0.2c-0.1-0.1-0.2-0.2-0.4-0.2c-0.2-0.1-0.4-0.1-0.6-0.1c-0.3,0-0.5,0.1-0.8,0.2
		c-0.2,0.1-0.5,0.3-0.6,0.5c-0.2,0.2-0.3,0.5-0.4,0.9C116.3,83.8,116.3,84.2,116.3,84.8z M118.5,82.7c0.2,0,0.3,0,0.4,0.1
		c0.1,0,0.2,0.1,0.3,0.1c0.1,0.1,0.2,0.1,0.2,0.2c0.1,0.1,0.1,0.1,0.1,0.2v3.5c-0.1,0.1-0.2,0.1-0.3,0.1c-0.1,0-0.3,0.1-0.4,0.1
		c-0.2,0-0.4,0-0.6-0.1c-0.2-0.1-0.4-0.2-0.5-0.4c-0.1-0.2-0.3-0.4-0.3-0.7c-0.1-0.3-0.1-0.6-0.1-1c0-0.4,0-0.7,0.1-1
		c0.1-0.3,0.2-0.5,0.3-0.6c0.1-0.2,0.3-0.3,0.4-0.4C118.2,82.7,118.4,82.7,118.5,82.7z M123,82h-1v5.7h1V82z M122.5,89.1
		c-0.2,0-0.4,0.1-0.5,0.2c-0.1,0.1-0.2,0.3-0.2,0.5c0,0.2,0.1,0.4,0.2,0.5c0.1,0.1,0.3,0.2,0.5,0.2c0.2,0,0.3-0.1,0.5-0.2
		s0.2-0.3,0.2-0.5c0-0.2-0.1-0.4-0.2-0.5S122.7,89.1,122.5,89.1z M128.1,85.8c0-0.2,0-0.5,0-0.6c0-0.2,0-0.3,0-0.5h-2.9
		c0-0.7,0.2-1.2,0.4-1.5c0.3-0.3,0.6-0.5,1.1-0.5c0.2,0,0.3,0,0.5,0.1s0.3,0.1,0.4,0.1c0.1,0.1,0.2,0.1,0.2,0.2
		c0.1,0.1,0.1,0.1,0.1,0.1l0.4-0.7c0,0-0.1-0.1-0.2-0.2c-0.1-0.1-0.2-0.2-0.3-0.2c-0.1-0.1-0.3-0.1-0.5-0.2s-0.4-0.1-0.7-0.1
		c-0.4,0-0.7,0.1-1,0.2c-0.3,0.1-0.5,0.3-0.7,0.6c-0.2,0.2-0.4,0.6-0.5,1c-0.1,0.4-0.2,0.8-0.2,1.4c0,0.5,0.1,0.9,0.2,1.3
		c0.1,0.4,0.3,0.7,0.5,0.9s0.4,0.4,0.7,0.5c0.3,0.1,0.5,0.2,0.8,0.2c0.5,0,1-0.2,1.3-0.5C128,87,128.1,86.5,128.1,85.8z M126.3,87.1
		c-0.3,0-0.6-0.1-0.8-0.4s-0.3-0.7-0.4-1.2h2.1c0,0,0,0.1,0,0.2c0,0.1,0,0.2,0,0.2c0,0.4-0.1,0.7-0.2,0.9
		C126.9,87,126.6,87.1,126.3,87.1z M132.5,82v3.7c0,0.5-0.1,0.8-0.2,1c-0.2,0.2-0.4,0.3-0.7,0.3c-0.3,0-0.5-0.1-0.7-0.2
		c-0.2-0.1-0.3-0.3-0.5-0.4V82h-1v5.7h0.9v-0.6h0c0,0,0.1,0.1,0.2,0.2c0.1,0.1,0.2,0.2,0.3,0.3c0.1,0.1,0.3,0.2,0.5,0.2
		s0.4,0.1,0.6,0.1c0.3,0,0.5,0,0.7-0.1c0.2-0.1,0.4-0.2,0.5-0.4s0.3-0.4,0.3-0.6c0.1-0.3,0.1-0.6,0.1-1V82H132.5z"/>
</g>
<g id="Adler-und-Saeulenelement">
	<path d="M14.2,9.3c0-0.2,0-0.5,0-0.7c0-0.1,0-0.3,0-0.4c2,0,3.7-1.5,3.7-3.1c0-0.8-0.5-1.5-0.9-1.9c0.1,0,0.1,0,0.2,0
		c0.3,0.3,1.1,1.2,1.1,2.3C18.4,7.5,16.4,9.3,14.2,9.3 M12.2,2.4c0-0.2-0.1-0.4-0.2-0.6c0-0.2,0.1-0.4,0.4-0.2c-0.2,0.2,0,0.5,0,0.5
		s0.4-0.2,0.3-0.4C13.1,1.8,12.7,2.5,12.2,2.4 M11.7,3.5c-0.1-0.3-0.2-0.6-0.4-0.8c-0.2-0.2-0.5-0.5-0.9-0.5c-0.2,0-0.5,0.1-0.7,0.2
		C9.7,2.2,9.5,1.9,9.5,1.8c0-0.1,0.2-0.3,0.7-0.3c1,0,1.6,0.5,1.6,1.2C11.9,3,11.8,3.2,11.7,3.5 M14.4,16.8c0.1,0,0.2,0,0.2,0
		c0.3,0.8,1.4,2.3,1.5,2.4l0,0l0,0c0.3,0,1-0.2,1.6-0.2h0c0.1,0,0.1,0,0.2,0c0,0,0.1,0.1,0.1,0.2c0,0.1-0.1,0.4-0.1,0.5
		c-0.2-0.2-0.6-0.3-1.1-0.3c-0.2,0-0.4,0-0.5,0.1l0,0l0,0l0.3,0.3c0.5,0.5,0.9,0.9,0.9,1.2c0,0.2-0.2,0.4-0.3,0.5
		c0-0.5-0.5-1.2-1.1-1.6l0,0l0,0.2c0,0.1,0,0.3,0,0.5c0,1-0.1,1.1-0.4,1.1c-0.1,0-0.1,0-0.2,0c0.2-0.2,0.3-0.5,0.3-1.1l0-0.3l0-0.2
		c0-0.2,0-0.4,0-0.5l0-0.1l-0.1,0c-0.2,0-0.5-0.1-0.7-0.1c-0.5,0-0.8,0-1,0.3c-0.2-0.1-0.3-0.3-0.3-0.5c0-0.2,0.1-0.2,0.3-0.2
		c0.1,0,0.2,0,0.3,0c0.2,0,0.5,0.1,1.2,0.1h0l0,0c-0.2-0.5-0.6-1.1-1.3-2C14.1,16.9,14.1,16.8,14.4,16.8 M8.2,19.2L8.2,19.2
		L8.2,19.2c0.7,0,1,0,1.2,0c0.1,0,0.2,0,0.3,0c0.2,0,0.3,0,0.3,0.2c0,0.1-0.2,0.4-0.3,0.5c-0.2-0.2-0.6-0.3-1-0.3
		c-0.2,0-0.5,0-0.7,0.1l0,0l0,0l0,0.1c0,0.1,0,0.3,0,0.5l0,0.2l0,0.3c0,0.5,0.1,0.9,0.3,1.1c0,0-0.1,0-0.2,0c-0.3,0-0.4-0.1-0.4-1.1
		c0-0.2,0-0.4,0-0.5l0-0.2l0,0c-0.5,0.4-1,1.1-1.1,1.6c-0.2-0.1-0.3-0.3-0.3-0.5c0-0.3,0.4-0.7,0.9-1.2l0.3-0.3l0,0l-0.1,0
		c-0.1,0-0.3-0.1-0.5-0.1c-0.5,0-0.9,0.1-1.1,0.3c-0.1-0.1-0.1-0.4-0.1-0.5c0-0.1,0-0.2,0.1-0.2c0,0,0.1,0,0.2,0h0
		c0.6,0,1.3,0.1,1.6,0.2l0,0l0,0c0-0.1,1.2-1.6,1.5-2.4c0.1,0,0.1,0,0.2,0c0.2,0,0.3,0.2,0.4,0.4C8.8,18,8.3,18.7,8.2,19.2 M5.1,5.5
		c0-1.1,0.8-2,1.1-2.3c0.1,0,0.1,0,0.2,0c-0.3,0.4-0.9,1-0.9,1.9c0,1.7,1.8,3.1,3.8,3.1c0,0.1,0,0.3,0,0.4c0,0.2,0,0.5,0,0.7
		C7.1,9.3,5.1,7.5,5.1,5.5 M20.4,9c1,1.6,1.8,1.6,3,1.6c-1-0.8-1.7-1.8-2-2.3l-1.9-3c-0.2-0.9-0.7-1.8-1.4-2.4
		c0.2-0.1,0.4-0.2,0.6-0.3c-1.2,0-2.4-0.6-3.1-0.6C15.2,2,15,2.3,15,2.6c0,0.4,0.4,0.8,1.1,0.8c0.2,0,0.4,0,0.6-0.1
		c0.4,0.5,0.7,1,0.7,1.7c0,1.3-1.6,2.3-3.1,2.3c-0.1,0-0.2,0-0.3,0c-0.1-0.3-0.6-0.9-0.6-1.5c0-1,0.7-1.9,0.7-2.9
		c0-0.6-0.3-1-0.4-1.2c0.2-0.2,0.4-0.4,0.5-0.6c-0.1,0-0.2,0.1-0.4,0.1c-0.8,0-1.4-0.2-2-0.2c-0.3,0-0.4,0.1-0.4,0.2
		c0,0,0,0.1,0,0.1c-0.1,0-0.2-0.1-0.4-0.1c-0.2,0-0.4-0.1-0.6-0.1c-0.7,0-1,0.3-1,0.6c0,0.2,0.2,0.6,0.4,0.9
		c0.3-0.1,0.6-0.2,0.8-0.2c0.4,0,0.7,0.4,0.9,0.8c-0.3,0-0.3,0-0.6,0C10.1,3.3,9.6,3,9.5,3c0,0,0,0,0,0c0,0.1,0.2,0.4,0.6,0.5
		c0.5,0.2,1.3,0.3,1.4,0.3c0,0-0.1,0.3-0.3,0.3c0,0-0.1,0-0.1,0C10.6,4.1,10.4,4,9.7,3.8c0,0,0,0,0,0c0,0.3,0.7,0.9,1.3,1.1
		c-0.5,0.7-1.2,1.4-1.5,2.4c-0.1,0-0.2,0-0.3,0c-1.6,0-3.1-1-3.1-2.3c0-0.7,0.3-1.2,0.7-1.7c0.2,0,0.4,0.1,0.6,0.1
		c0.7,0,1.1-0.4,1.1-0.8C8.5,2.3,8.3,2,7.8,2C7.2,2,6,2.6,4.7,2.6c0.1,0.1,0.3,0.2,0.6,0.3C4.6,3.6,4.1,4.4,3.9,5.3l-1.9,3
		c-0.3,0.5-1,1.5-2,2.3c1.2,0,2,0,3-1.6l1-1.5C4.1,7.7,4.2,7.9,4.3,8l-1.9,3.1c-0.3,0.5-1,1.5-2,2.3c1.2,0,2,0,3-1.6l1.6-2.6
		c0.1,0.1,0.3,0.3,0.4,0.4l-2.3,3.7c-0.3,0.5-1,1.5-2,2.2c1.2,0,2,0,3-1.6l2.3-3.6c0.1,0.1,0.3,0.2,0.5,0.3l-2.8,4.4
		c-0.3,0.5-1,1.5-2,2.2c1.2,0,2,0,3-1.6l2.8-4.5c0.2,0.1,0.3,0.1,0.5,0.2l-3.2,5.1c-0.3,0.5-1,1.5-2,2.2c1.2,0,2,0,3-1.6l3.4-5.5
		c0,0,0.1,0,0.1,0c0.1,0.3,0.2,0.6,0.2,0.8c0,1.7-1.1,3.2-2.5,4.4c0.1,0,0.2,0.1,0.4,0.1c0.3,0,0.5,0,0.6,0c-0.3,0.7-1,1.6-1.3,2.1
		c-0.4-0.1-1.1-0.1-1.5-0.1c-0.4,0-0.5,0.3-0.5,0.5c0,0.4,0.2,0.7,0.4,0.9c0.1-0.2,0.2-0.5,1.1-0.5c0,0,0,0,0.1,0
		c-0.2,0.3-1,0.9-1,1.4c0,0.3,0.4,0.8,0.8,0.8c0-0.1,0-0.2,0-0.3c0-0.4,0.3-0.9,0.6-1.2c0,0.1,0,0.1,0,0.2C7.3,21.6,7.4,22,8,22
		c0.3,0,0.5-0.2,0.6-0.2c-0.4-0.4-0.4-0.6-0.4-1.2c0-0.1,0-0.3,0-0.5c0-0.1,0-0.3,0-0.4c0.2,0,0.3,0,0.5,0c0,0,0.8-0.1,1,0.4
		c0.2-0.2,0.6-0.5,0.6-0.8c0-0.2-0.1-0.5-0.5-0.5C9.5,18.8,9,19,8.5,19c0.1-0.3,0.6-1,1.1-1.6c0.1,0.2,0.2,0.4,0.4,0.6
		c0-0.4,0.2-1.5,0.8-2.1c0.1,0.4,0.2,0.9,0.2,1.8c0,2.3-0.6,4-1.7,4.3c0.2,0.3,0.5,0.5,0.8,0.5c0.4,0,0.7-0.5,0.9-1
		c0.1,0.3,0.5,1.2,0.8,1.2s0.7-0.8,0.8-1.2c0.2,0.5,0.5,1,0.9,1c0.3,0,0.7-0.2,0.8-0.5c-1.2-0.3-1.7-2-1.7-4.3c0-1,0.1-1.4,0.2-1.8
		c0.6,0.7,0.8,1.8,0.8,2.1c0.2-0.2,0.3-0.4,0.4-0.6c0.4,0.5,1,1.3,1.1,1.6c-0.4,0-0.9-0.1-1.1-0.1c-0.4,0-0.5,0.2-0.5,0.5
		c0,0.3,0.3,0.6,0.6,0.8c0.2-0.4,1-0.4,1-0.4c0.2,0,0.2,0,0.5,0c0,0.1,0,0.3,0,0.4c0,0.2,0,0.3,0,0.5c0,0.5,0,0.8-0.4,1.2
		c0.1,0,0.3,0.2,0.6,0.2c0.6,0,0.7-0.4,0.7-1.4c0-0.1,0-0.1,0-0.2c0.3,0.3,0.6,0.8,0.6,1.2c0,0.1,0,0.2,0,0.3c0.5,0,0.8-0.5,0.8-0.8
		c0-0.5-0.7-1.1-1-1.4c0,0,0.1,0,0.1,0c0.8,0,1,0.3,1.1,0.5c0.2-0.2,0.4-0.5,0.4-0.9c0-0.2,0-0.5-0.5-0.5c-0.4,0-1.1,0.1-1.5,0.1
		c-0.3-0.5-1-1.4-1.3-2.1c0.1,0,0.3,0,0.6,0c0.1,0,0.3,0,0.4-0.1c-1.4-1.2-2.5-2.7-2.5-4.4c0-0.3,0.1-0.6,0.2-0.8c0,0,0.1,0,0.1,0
		L17,17c1,1.6,1.8,1.6,3,1.6c-1-0.8-1.7-1.8-2-2.2l-3.2-5.1c0.2-0.1,0.3-0.1,0.5-0.2l2.8,4.5c1,1.6,1.8,1.6,3,1.6
		c-1-0.8-1.7-1.7-2-2.2l-2.8-4.4c0.2-0.1,0.3-0.2,0.5-0.3l2.3,3.6c1,1.6,1.8,1.6,3,1.6c-1-0.8-1.7-1.7-2-2.2L18,9.5
		c0.1-0.1,0.3-0.2,0.4-0.4l1.6,2.6c1,1.6,1.8,1.6,3,1.6c-1-0.8-1.7-1.7-2-2.3L19.2,8c0.1-0.2,0.2-0.4,0.3-0.6L20.4,9z"/>
	<path d="M33,22h-3.5V2H33V22z"/>
	<path class="st1" d="M33,42h-3.5V22H33V42z"/>
	<path class="st2" d="M33,62h-3.5V42H33V62z"/>
</g>
</svg>
