<?xml version="1.0" encoding="UTF-8" standalone="no"?>
<!-- Created with Inkscape (http://www.inkscape.org/) -->

<svg
   xmlns:dc="http://purl.org/dc/elements/1.1/"
   xmlns:cc="http://creativecommons.org/ns#"
   xmlns:rdf="http://www.w3.org/1999/02/22-rdf-syntax-ns#"
   xmlns:svg="http://www.w3.org/2000/svg"
   xmlns="http://www.w3.org/2000/svg"
   xmlns:sodipodi="http://sodipodi.sourceforge.net/DTD/sodipodi-0.dtd"
   xmlns:inkscape="http://www.inkscape.org/namespaces/inkscape"
   version="1.1"
   id="svg2"
   xml:space="preserve"
   width="492.88666"
   height="247.7224"
   viewBox="0 0 492.88665 247.7224"
   sodipodi:docname="GF-Color-einfach.svg"
   inkscape:version="0.92.1 r15371"><metadata
     id="metadata8"><rdf:RDF><cc:Work
         rdf:about=""><dc:format>image/svg+xml</dc:format><dc:type
           rdf:resource="http://purl.org/dc/dcmitype/StillImage" /><dc:title></dc:title></cc:Work></rdf:RDF></metadata><defs
     id="defs6"><clipPath
       clipPathUnits="userSpaceOnUse"
       id="clipPath20"><path
         d="M 288.898,197.012 232.012,144.523 V 10 h -13.184 v 355.469 h 13.184 V 159.902 l 58.593,57.375 147.461,148.192 h 19.043 L 298.664,206.047 469.316,10 h -17.089 z"
         id="path18"
         inkscape:connector-curvature="0" /></clipPath><clipPath
       clipPathUnits="userSpaceOnUse"
       id="clipPath26"><path
         d="M 0,0 H 3700 V 2520 H 0 Z"
         id="path24"
         inkscape:connector-curvature="0" /></clipPath><clipPath
       clipPathUnits="userSpaceOnUse"
       id="clipPath36"><path
         d="M 758.469,365.469 V 124.746 c 0,-37.5976 -10.906,-66.9335 -32.715,-88.0116 C 703.945,15.6563 674.402,5.11719 637.133,5.11719 c -37.274,0 -66.817,10.53911 -88.625,31.61721 -21.809,21.0781 -32.797,50.0898 -32.957,87.0356 v 241.699 h 13.183 V 125.234 c 0,-32.8785 9.887,-58.9176 29.661,-78.1246 19.777,-19.2071 46.019,-28.8086 78.738,-28.8086 32.715,0 58.918,9.6015 78.613,28.8086 19.692,19.207 29.539,45.3281 29.539,78.3706 v 239.989 z"
         id="path34"
         inkscape:connector-curvature="0" /></clipPath><clipPath
       clipPathUnits="userSpaceOnUse"
       id="clipPath42"><path
         d="M 0,0 H 3700 V 2520 H 0 Z"
         id="path40"
         inkscape:connector-curvature="0" /></clipPath><clipPath
       clipPathUnits="userSpaceOnUse"
       id="clipPath52"><path
         d="m 1091.57,10 h -13.19 L 848.891,343.008 V 10 h -13.426 v 355.469 h 13.426 L 1078.38,33.1953 V 365.469 h 13.19 z"
         id="path50"
         inkscape:connector-curvature="0" /></clipPath><clipPath
       clipPathUnits="userSpaceOnUse"
       id="clipPath58"><path
         d="M 0,0 H 3700 V 2520 H 0 Z"
         id="path56"
         inkscape:connector-curvature="0" /></clipPath><clipPath
       clipPathUnits="userSpaceOnUse"
       id="clipPath68"><path
         d="m 1385.11,95.207 c 0,15.137 -3.54,27.953 -10.62,38.449 -7.08,10.5 -18.22,19.778 -33.44,27.832 -15.22,8.059 -38.21,16.317 -68.97,24.782 -30.77,8.464 -53.84,17.007 -69.22,25.636 -15.38,8.625 -26.65,18.633 -33.81,30.028 -7.16,11.394 -10.74,25.226 -10.74,41.504 0,25.878 10.9,46.835 32.71,62.867 21.81,16.031 50.21,24.047 85.21,24.047 22.78,0 43.25,-4.434 61.4,-13.305 18.15,-8.871 32.18,-21.324 42.11,-37.356 9.93,-16.031 14.9,-34.136 14.9,-54.32 h -13.19 c 0,26.531 -9.76,48.461 -29.29,65.797 -19.53,17.332 -44.85,26 -75.93,26 -31.25,0 -56.52,-6.957 -75.81,-20.875 -19.29,-13.914 -28.93,-31.371 -28.93,-52.367 0,-21.321 8.38,-38.492 25.15,-51.512 16.76,-13.023 44.43,-24.539 83,-34.547 38.58,-10.012 66.82,-21.605 84.72,-34.789 22.79,-16.765 34.18,-39.226 34.18,-67.3827 0,-17.9062 -5.04,-33.7344 -15.13,-47.4883 -10.1,-13.7539 -24.42,-24.3711 -42.97,-31.8593 -18.56,-7.48832 -39.39,-11.23051 -62.5,-11.23051 -25.72,0 -48.83,4.27344 -69.34,12.81641 -20.51,8.5469 -35.93,20.7109 -46.26,36.5 -10.34,15.7891 -15.51,34.4219 -15.51,55.9104 h 13.19 c 0,-29.137 10.9,-51.7581 32.71,-67.8713 21.81,-16.1172 50.21,-24.1719 85.21,-24.1719 31.08,0 56.72,7.1211 76.9,21.3633 20.18,14.2422 30.27,32.7539 30.27,55.5429 z"
         id="path66"
         inkscape:connector-curvature="0" /></clipPath><clipPath
       clipPathUnits="userSpaceOnUse"
       id="clipPath74"><path
         d="M 0,0 H 3700 V 2520 H 0 Z"
         id="path72"
         inkscape:connector-curvature="0" /></clipPath><clipPath
       clipPathUnits="userSpaceOnUse"
       id="clipPath84"><path
         d="m 1687.45,352.285 h -129.4 V 10 h -13.18 v 342.285 h -129.39 v 13.184 h 271.97 z"
         id="path82"
         inkscape:connector-curvature="0" /></clipPath><clipPath
       clipPathUnits="userSpaceOnUse"
       id="clipPath90"><path
         d="M 0,0 H 3700 V 2520 H 0 Z"
         id="path88"
         inkscape:connector-curvature="0" /></clipPath><clipPath
       clipPathUnits="userSpaceOnUse"
       id="clipPath100"><path
         d="m 1850.12,44.668 7.08,-21.4844 7.08,21.4844 119.38,320.801 h 14.41 L 1865.25,10 h -16.11 l -132.81,355.469 h 14.4 z"
         id="path98"
         inkscape:connector-curvature="0" /></clipPath><clipPath
       clipPathUnits="userSpaceOnUse"
       id="clipPath106"><path
         d="M 0,0 H 3700 V 2520 H 0 Z"
         id="path104"
         inkscape:connector-curvature="0" /></clipPath><clipPath
       clipPathUnits="userSpaceOnUse"
       id="clipPath116"><path
         d="M 2229.6,186.27 H 2051.38 V 23.1836 H 2254.5 V 10 h -216.3 v 355.469 h 216.3 V 352.285 H 2051.38 V 199.453 h 178.22 z"
         id="path114"
         inkscape:connector-curvature="0" /></clipPath><clipPath
       clipPathUnits="userSpaceOnUse"
       id="clipPath122"><path
         d="M 0,0 H 3700 V 2520 H 0 Z"
         id="path120"
         inkscape:connector-curvature="0" /></clipPath><clipPath
       clipPathUnits="userSpaceOnUse"
       id="clipPath132"><path
         d="M 2451.12,162.102 H 2327.83 V 10 h -13.19 v 355.469 h 113.29 c 35.64,0 64,-9.196 85.08,-27.586 21.08,-18.395 31.62,-43.379 31.62,-74.953 0,-24.25 -7.54,-45.45 -22.59,-63.598 -15.06,-18.148 -34.22,-29.418 -57.49,-33.812 L 2559.52,13.418 V 10 h -13.92 z m -123.29,13.183 h 112.06 c 27.34,0 49.43,8.297 66.28,24.903 16.85,16.601 25.27,37.515 25.27,62.742 0,27.668 -9.32,49.48 -27.96,65.429 -18.63,15.95 -44.14,23.926 -76.53,23.926 h -99.12 z"
         id="path130"
         inkscape:connector-curvature="0" /></clipPath><clipPath
       clipPathUnits="userSpaceOnUse"
       id="clipPath138"><path
         d="M 0,0 H 3700 V 2520 H 0 Z"
         id="path136"
         inkscape:connector-curvature="0" /></clipPath><clipPath
       clipPathUnits="userSpaceOnUse"
       id="clipPath148"><path
         d="M 2807.42,186.27 H 2629.2 V 23.1836 h 203.12 V 10 h -216.31 v 355.469 h 216.31 V 352.285 H 2629.2 V 199.453 h 178.22 z"
         id="path146"
         inkscape:connector-curvature="0" /></clipPath><clipPath
       clipPathUnits="userSpaceOnUse"
       id="clipPath154"><path
         d="M 0,0 H 3700 V 2520 H 0 Z"
         id="path152"
         inkscape:connector-curvature="0" /></clipPath><clipPath
       clipPathUnits="userSpaceOnUse"
       id="clipPath164"><path
         d="m 2916.63,10 h -13.18 v 355.469 h 13.18 z"
         id="path162"
         inkscape:connector-curvature="0" /></clipPath><clipPath
       clipPathUnits="userSpaceOnUse"
       id="clipPath174"><path
         d="m 3253.16,10 h -13.19 L 3010.48,343.008 V 10 h -13.43 v 355.469 h 13.43 L 3239.97,33.1953 V 365.469 h 13.19 z"
         id="path172"
         inkscape:connector-curvature="0" /></clipPath><clipPath
       clipPathUnits="userSpaceOnUse"
       id="clipPath180"><path
         d="M 0,0 H 3700 V 2520 H 0 Z"
         id="path178"
         inkscape:connector-curvature="0" /></clipPath><clipPath
       clipPathUnits="userSpaceOnUse"
       id="clipPath190"><path
         d="M 3576.26,352.285 H 3450.53 L 3391.45,10 h -13.18 l 59.08,342.285 H 3312.1 l 1.71,13.184 h 264.16 z"
         id="path188"
         inkscape:connector-curvature="0" /></clipPath><clipPath
       clipPathUnits="userSpaceOnUse"
       id="clipPath196"><path
         d="M 0,0 H 3700 V 2520 H 0 Z"
         id="path194"
         inkscape:connector-curvature="0" /></clipPath><clipPath
       clipPathUnits="userSpaceOnUse"
       id="clipPath206"><path
         d="m 457.75,2111.34 h 335.297 v -27.07 c 0,-61.56 -7.184,-116.05 -21.551,-163.46 -14.012,-43.87 -37.664,-84.92 -70.945,-123.13 -75.328,-85.62 -171.153,-128.43 -287.473,-128.43 -113.519,0 -210.742,41.39 -291.676,124.19 C 40.4648,1876.59 0,1976.36 0,2092.77 c 0,118.88 41.168,219.71 123.504,302.51 82.336,83.15 182.535,124.72 300.609,124.72 63.418,0 122.625,-13.09 177.633,-39.27 52.555,-26.19 104.234,-68.64 155.035,-127.38 l -87.238,-84.38 c -66.57,89.51 -147.68,134.27 -243.328,134.27 -85.84,0 -157.836,-29.9 -215.996,-89.69 -58.16,-58.74 -87.242,-132.33 -87.242,-220.78 0,-91.29 32.41,-166.47 97.226,-225.56 60.613,-54.84 126.305,-82.26 197.078,-82.26 60.262,0 114.395,20.51 162.395,61.56 48,41.4 74.801,90.93 80.406,148.6 H 457.75 Z"
         id="path204"
         inkscape:connector-curvature="0"
         style="clip-rule:evenodd" /></clipPath><clipPath
       clipPathUnits="userSpaceOnUse"
       id="clipPath212"><path
         d="m 0,662.082 h 3700 v 1857.92 H 0 Z"
         id="path210"
         inkscape:connector-curvature="0" /></clipPath><clipPath
       clipPathUnits="userSpaceOnUse"
       id="clipPath222"><path
         d="m 1061.26,2508.68 v -703.22 h 238.6 V 1689.24 H 938.805 v 819.44 z"
         id="path220"
         inkscape:connector-curvature="0"
         style="clip-rule:evenodd" /></clipPath><clipPath
       clipPathUnits="userSpaceOnUse"
       id="clipPath228"><path
         d="m 0,662.082 h 3700 v 1857.92 H 0 Z"
         id="path226"
         inkscape:connector-curvature="0" /></clipPath><clipPath
       clipPathUnits="userSpaceOnUse"
       id="clipPath238"><path
         d="m 1332.64,2096.38 c 0,-90.58 30.13,-165.05 90.4,-223.43 59.91,-58.38 129.1,-87.57 207.59,-87.57 85.14,0 156.96,29.72 215.47,89.16 58.51,60.15 87.76,133.39 87.76,219.72 0,87.39 -28.9,160.63 -86.71,219.72 -57.46,59.44 -128.58,89.16 -213.37,89.16 -84.44,0 -155.74,-29.72 -213.9,-89.16 -58.16,-58.73 -87.24,-131.27 -87.24,-217.6 z"
         id="path236"
         inkscape:connector-curvature="0" /></clipPath><clipPath
       clipPathUnits="userSpaceOnUse"
       id="clipPath244"><path
         d="m 0,662.082 h 3700 v 1857.92 H 0 Z"
         id="path242"
         inkscape:connector-curvature="0" /></clipPath><clipPath
       clipPathUnits="userSpaceOnUse"
       id="clipPath254"><path
         d="m 2082.39,1689.24 v 819.44 h 121.92 c 54.31,0 97.58,-4.25 129.82,-12.74 32.58,-8.49 60.08,-22.82 82.5,-42.99 22.78,-20.87 40.82,-46.88 54.14,-78.02 13.66,-31.48 20.49,-63.33 20.49,-95.52 0,-58.74 -22.25,-108.45 -66.74,-149.14 43.09,-14.86 77.08,-40.86 101.95,-78.02 25.23,-36.79 37.84,-79.61 37.84,-128.43 0,-64.04 -22.42,-118.18 -67.27,-162.4 -26.98,-27.25 -57.28,-46.18 -90.92,-56.79 -36.78,-10.26 -82.86,-15.39 -138.21,-15.39 z m 122.45,467.57 h 38.36 c 45.55,0 78.93,10.17 100.12,30.51 21.2,20.35 31.8,50.33 31.8,89.96 0,38.57 -10.87,67.85 -32.59,87.84 -21.72,19.99 -53.25,29.98 -94.6,29.98 h -43.09 z m 0,-351.35 h 75.68 c 55.36,0 96,10.97 121.93,32.91 27.32,23.71 40.99,53.78 40.99,90.22 0,35.39 -13.14,65.11 -39.42,89.17 -25.57,23.7 -71.3,35.56 -137.17,35.56 h -62.01 z"
         id="path252"
         inkscape:connector-curvature="0"
         style="clip-rule:evenodd" /></clipPath><clipPath
       clipPathUnits="userSpaceOnUse"
       id="clipPath260"><path
         d="m 0,662.082 h 3700 v 1857.92 H 0 Z"
         id="path258"
         inkscape:connector-curvature="0" /></clipPath><clipPath
       clipPathUnits="userSpaceOnUse"
       id="clipPath270"><path
         d="m 3381.1,2510.26 v -703.21 h 238.6 v -116.23 h -361.05 v 819.44 z"
         id="path268"
         inkscape:connector-curvature="0"
         style="clip-rule:evenodd" /></clipPath><clipPath
       clipPathUnits="userSpaceOnUse"
       id="clipPath276"><path
         d="m 0,662.082 h 3700 v 1857.92 H 0 Z"
         id="path274"
         inkscape:connector-curvature="0" /></clipPath><clipPath
       clipPathUnits="userSpaceOnUse"
       id="clipPath286"><path
         d="m 2907.38,2316.2 206.74,-433.29 h -415.09 z"
         id="path284"
         inkscape:connector-curvature="0" /></clipPath><clipPath
       clipPathUnits="userSpaceOnUse"
       id="clipPath292"><path
         d="m 0,662.082 h 3700 v 1857.92 H 0 Z"
         id="path290"
         inkscape:connector-curvature="0" /></clipPath><clipPath
       clipPathUnits="userSpaceOnUse"
       id="clipPath302"><path
         d="M 616.891,1383.2 H 334.148 V 1186.29 H 606.902 V 1070.07 H 334.148 V 679.984 H 211.695 v 819.436 h 405.196 z"
         id="path300"
         inkscape:connector-curvature="0"
         style="clip-rule:evenodd" /></clipPath><clipPath
       clipPathUnits="userSpaceOnUse"
       id="clipPath308"><path
         d="m 0,662.082 h 3700 v 1857.92 H 0 Z"
         id="path306"
         inkscape:connector-curvature="0" /></clipPath><clipPath
       clipPathUnits="userSpaceOnUse"
       id="clipPath318"><path
         d="m 719.82,1083.61 c 0,-90.579 30.133,-165.059 90.395,-223.438 59.914,-58.379 129.109,-87.57 207.585,-87.57 85.14,0 156.97,29.718 215.48,89.164 58.51,60.148 87.76,133.386 87.76,219.714 0,87.4 -28.9,160.64 -86.71,219.72 -57.46,59.44 -128.58,89.17 -213.37,89.17 -84.44,0 -155.737,-29.73 -213.897,-89.17 -58.161,-58.73 -87.243,-131.26 -87.243,-217.59 z"
         id="path316"
         inkscape:connector-curvature="0" /></clipPath><clipPath
       clipPathUnits="userSpaceOnUse"
       id="clipPath324"><path
         d="m 0,662.082 h 3700 v 1857.92 H 0 Z"
         id="path322"
         inkscape:connector-curvature="0" /></clipPath><clipPath
       clipPathUnits="userSpaceOnUse"
       id="clipPath334"><path
         d="M 1725.13,1029.2 1976.34,679.984 H 1826.56 L 1594.8,1015.4 h -22.08 V 679.984 h -122.45 v 819.436 h 143.48 c 107.21,0 184.64,-20.34 232.29,-61.03 52.55,-45.29 78.83,-105.09 78.83,-179.39 0,-58.02 -16.47,-107.91 -49.41,-149.66 -32.93,-41.75 -76.37,-68.46 -130.33,-80.14 z m -152.41,93.94 h 38.89 c 115.97,0 173.96,44.75 173.96,134.27 0,83.86 -56.41,125.79 -169.23,125.79 h -43.62 z"
         id="path332"
         inkscape:connector-curvature="0"
         style="clip-rule:evenodd" /></clipPath><clipPath
       clipPathUnits="userSpaceOnUse"
       id="clipPath340"><path
         d="m 0,662.082 h 3700 v 1857.92 H 0 Z"
         id="path338"
         inkscape:connector-curvature="0" /></clipPath><clipPath
       clipPathUnits="userSpaceOnUse"
       id="clipPath350"><path
         d="m 2532.64,1383.2 h -325.31 v -196.91 h 315.85 V 1070.07 H 2207.33 V 796.211 h 325.31 V 679.984 h -447.76 v 819.436 h 447.76 z"
         id="path348"
         inkscape:connector-curvature="0"
         style="clip-rule:evenodd" /></clipPath><clipPath
       clipPathUnits="userSpaceOnUse"
       id="clipPath356"><path
         d="m 0,662.082 h 3700 v 1857.92 H 0 Z"
         id="path354"
         inkscape:connector-curvature="0" /></clipPath><clipPath
       clipPathUnits="userSpaceOnUse"
       id="clipPath366"><path
         d="m 3140.27,1372.76 -99.32,-59.44 c -18.57,32.55 -36.27,53.77 -53.09,63.68 -17.51,11.32 -40.11,16.98 -67.79,16.98 -33.98,0 -62.19,-9.73 -84.61,-29.18 -22.42,-19.11 -33.64,-43.17 -33.64,-72.18 0,-39.98 29.43,-72.18 88.29,-96.6 l 80.94,-33.43 c 65.86,-26.89 114.04,-59.71 144.52,-98.45 30.48,-38.75 45.72,-86.242 45.72,-142.499 0,-75.364 -24.87,-137.637 -74.62,-186.817 -50.1,-49.535 -112.29,-74.301 -186.57,-74.301 -70.42,0 -128.58,21.051 -174.48,63.157 -45.2,42.105 -73.4,101.367 -84.61,177.793 l 124.03,27.597 c 5.6,-48.121 15.41,-81.379 29.42,-99.777 25.23,-35.383 62.02,-53.07 110.37,-53.07 38.19,0 69.9,12.914 95.12,38.742 25.23,25.828 37.84,58.555 37.84,98.183 0,15.922 -2.19,30.516 -6.57,43.786 -4.38,13.265 -11.21,25.472 -20.49,36.621 -9.29,11.145 -21.29,21.585 -36,31.315 -14.72,9.72 -32.24,19.01 -52.56,27.86 l -78.3,32.9 c -111.07,47.42 -166.6,116.76 -166.6,208.05 0,61.56 23.3,113.04 69.89,154.44 46.61,41.75 104.59,62.63 173.96,62.63 93.55,0 166.6,-46 219.15,-137.99 z"
         id="path364"
         inkscape:connector-curvature="0"
         style="clip-rule:evenodd" /></clipPath><clipPath
       clipPathUnits="userSpaceOnUse"
       id="clipPath372"><path
         d="m 0,662.082 h 3700 v 1857.92 H 0 Z"
         id="path370"
         inkscape:connector-curvature="0" /></clipPath><clipPath
       clipPathUnits="userSpaceOnUse"
       id="clipPath382"><path
         d="M 3510.61,1383.2 V 679.984 H 3388.15 V 1383.2 h -186.56 v 116.22 h 495.06 V 1383.2 Z"
         id="path380"
         inkscape:connector-curvature="0"
         style="clip-rule:evenodd" /></clipPath><clipPath
       clipPathUnits="userSpaceOnUse"
       id="clipPath388"><path
         d="m 0,662.082 h 3700 v 1857.92 H 0 Z"
         id="path386"
         inkscape:connector-curvature="0" /></clipPath></defs><sodipodi:namedview
     pagecolor="#ffffff"
     bordercolor="#666666"
     borderopacity="1"
     objecttolerance="10"
     gridtolerance="10"
     guidetolerance="10"
     inkscape:pageopacity="0"
     inkscape:pageshadow="2"
     inkscape:window-width="2560"
     inkscape:window-height="1374"
     id="namedview4"
     showgrid="false"
     fit-margin-top="0"
     fit-margin-left="0"
     fit-margin-right="0"
     fit-margin-bottom="0"
     inkscape:zoom="0.99331667"
     inkscape:cx="178.10833"
     inkscape:cy="173.18349"
     inkscape:window-x="0"
     inkscape:window-y="1"
     inkscape:window-maximized="1"
     inkscape:current-layer="g10" /><g
     id="g10"
     inkscape:groupmode="layer"
     inkscape:label="ink_ext_XXXXXX"
     transform="matrix(1.3333333,0,0,-1.3333333,0,335.99999)"><g
       id="g200"
       transform="scale(0.1)"><g
         clip-path="url(#clipPath206)"
         id="g202"><g
           clip-path="url(#clipPath212)"
           id="g208"><path
             inkscape:connector-curvature="0"
             id="path214"
             style="fill:#000000;fill-opacity:1;fill-rule:nonzero;stroke:none"
             d="m 0,1619.25 h 843.047 v 950.754 H 0 Z" /></g></g></g><g
       id="g216"
       transform="scale(0.1)"><g
         clip-path="url(#clipPath222)"
         id="g218"><g
           clip-path="url(#clipPath228)"
           id="g224"><path
             inkscape:connector-curvature="0"
             id="path230"
             style="fill:#000000;fill-opacity:1;fill-rule:nonzero;stroke:none"
             d="m 888.805,1639.24 h 461.051 v 919.441 H 888.805 Z" /></g></g></g><g
       id="g232"
       transform="scale(0.1)"><g
         clip-path="url(#clipPath238)"
         id="g234"><g
           clip-path="url(#clipPath244)"
           id="g240"><path
             inkscape:connector-curvature="0"
             id="path246"
             style="fill:#ff807e;fill-opacity:1;fill-rule:nonzero;stroke:none"
             d="m 1282.64,1735.38 h 701.223 v 717.766 H 1282.64 Z" /></g></g></g><g
       id="g248"
       transform="scale(0.1)"><g
         clip-path="url(#clipPath254)"
         id="g250"><g
           clip-path="url(#clipPath260)"
           id="g256"><path
             inkscape:connector-curvature="0"
             id="path262"
             style="fill:#000000;fill-opacity:1;fill-rule:nonzero;stroke:none"
             d="m 2032.39,1639.24 h 581.926 v 919.441 H 2032.39 Z" /></g></g></g><g
       id="g264"
       transform="scale(0.1)"><g
         clip-path="url(#clipPath270)"
         id="g266"><g
           clip-path="url(#clipPath276)"
           id="g272"><path
             inkscape:connector-curvature="0"
             id="path278"
             style="fill:#000000;fill-opacity:1;fill-rule:nonzero;stroke:none"
             d="m 3208.65,1640.82 h 461.047 v 919.441 H 3208.65 Z" /></g></g></g><g
       id="g280"
       transform="scale(0.1)"><g
         clip-path="url(#clipPath286)"
         id="g282"><g
           clip-path="url(#clipPath292)"
           id="g288"><path
             inkscape:connector-curvature="0"
             id="path294"
             style="fill:#179487;fill-opacity:1;fill-rule:nonzero;stroke:none"
             d="m 2649.03,1832.91 h 515.09 v 533.297 h -515.09 z" /></g></g></g><g
       id="g296"
       transform="scale(0.1)"><g
         clip-path="url(#clipPath302)"
         id="g298"><g
           clip-path="url(#clipPath308)"
           id="g304"><path
             inkscape:connector-curvature="0"
             id="path310"
             style="fill:#000000;fill-opacity:1;fill-rule:nonzero;stroke:none"
             d="M 161.695,629.984 H 666.89 v 919.438 H 161.695 Z" /></g></g></g><g
       id="g312"
       transform="scale(0.1)"><g
         clip-path="url(#clipPath318)"
         id="g314"><g
           clip-path="url(#clipPath324)"
           id="g320"><path
             inkscape:connector-curvature="0"
             id="path326"
             style="fill:#7fffb6;fill-opacity:1;fill-rule:nonzero;stroke:none"
             d="m 669.82,722.602 h 701.223 v 717.766 H 669.82 Z" /></g></g></g><g
       id="g328"
       transform="scale(0.1)"><g
         clip-path="url(#clipPath334)"
         id="g330"><g
           clip-path="url(#clipPath340)"
           id="g336"><path
             inkscape:connector-curvature="0"
             id="path342"
             style="fill:#000000;fill-opacity:1;fill-rule:nonzero;stroke:none"
             d="m 1400.27,629.984 h 626.07 v 919.438 h -626.07 z" /></g></g></g><g
       id="g344"
       transform="scale(0.1)"><g
         clip-path="url(#clipPath350)"
         id="g346"><g
           clip-path="url(#clipPath356)"
           id="g352"><path
             inkscape:connector-curvature="0"
             id="path358"
             style="fill:#000000;fill-opacity:1;fill-rule:nonzero;stroke:none"
             d="m 2034.88,629.984 h 547.762 v 919.438 H 2034.88 Z" /></g></g></g><g
       id="g360"
       transform="scale(0.1)"><g
         clip-path="url(#clipPath366)"
         id="g362"><g
           clip-path="url(#clipPath372)"
           id="g368"><path
             inkscape:connector-curvature="0"
             id="path374"
             style="fill:#000000;fill-opacity:1;fill-rule:nonzero;stroke:none"
             d="m 2591.01,610.523 h 620.285 v 950.223 H 2591.01 Z" /></g></g></g><g
       id="g376"
       transform="scale(0.1)"><g
         clip-path="url(#clipPath382)"
         id="g378"><g
           clip-path="url(#clipPath388)"
           id="g384"><path
             inkscape:connector-curvature="0"
             id="path390"
             style="fill:#000000;fill-opacity:1;fill-rule:nonzero;stroke:none"
             d="m 3151.59,629.984 h 595.063 v 919.438 H 3151.59 Z" /></g></g></g></g></svg>