<?xml version="1.0" encoding="UTF-8" standalone="no"?>
<!-- Created with Inkscape (http://www.inkscape.org/) -->

<svg
   version="1.1"
   id="svg2"
   width="268.04001"
   height="75.58667"
   viewBox="0 0 268.04001 75.58667"
   sodipodi:docname="fritz-kola_schwarz_.eps"
   xmlns:inkscape="http://www.inkscape.org/namespaces/inkscape"
   xmlns:sodipodi="http://sodipodi.sourceforge.net/DTD/sodipodi-0.dtd"
   xmlns="http://www.w3.org/2000/svg"
   xmlns:svg="http://www.w3.org/2000/svg">
  <defs
     id="defs6" />
  <sodipodi:namedview
     id="namedview4"
     pagecolor="#ffffff"
     bordercolor="#000000"
     borderopacity="0.25"
     inkscape:showpageshadow="2"
     inkscape:pageopacity="0.0"
     inkscape:pagecheckerboard="0"
     inkscape:deskcolor="#d1d1d1" />
  <g
     id="g8"
     inkscape:groupmode="layer"
     inkscape:label="ink_ext_XXXXXX"
     transform="matrix(1.3333333,0,0,-1.3333333,0,75.586667)">
    <g
       id="g10"
       transform="scale(0.1)">
      <path
         d="m 961.574,550.145 h 62.316 V 219.723 l 77.85,105.218 H 1180 L 1068.27,180.113 1202.08,8.81641 h -75.95 L 1023.89,134.82 V 8.81641 h -62.316 v 541.32859 0"
         style="fill:#0d0d0c;fill-opacity:1;fill-rule:evenodd;stroke:none"
         id="path12" />
      <path
         d="m 1490.27,550.145 h 61.77 V 8.80469 h -61.77 v 541.34031 0"
         style="fill:#0d0d0c;fill-opacity:1;fill-rule:evenodd;stroke:none"
         id="path14" />
      <path
         d="m 1313.7,333.691 c -89.33,0 -161.73,-74.699 -161.73,-166.839 0,-92.1489 72.4,-166.85590625 161.73,-166.85590625 89.32,0 161.73,74.70700625 161.73,166.85590625 0,92.14 -72.41,166.839 -161.73,166.839 z m 0,-272.0933 c -54.05,0 -97.87,47.1213 -97.87,105.2543 0,58.125 43.82,105.246 97.87,105.246 54.05,0 97.86,-47.121 97.86,-105.246 0,-58.133 -43.81,-105.2543 -97.86,-105.2543 v 0"
         style="fill:#0d0d0c;fill-opacity:1;fill-rule:evenodd;stroke:none"
         id="path16" />
      <path
         d="m 961.574,550.145 h 62.316 V 219.723 l 77.85,105.218 H 1180 L 1068.27,180.113 1202.08,8.81641 h -75.95 L 1023.89,134.82 V 8.81641 h -62.316 v 541.32859 0"
         style="fill:#0d0d0c;fill-opacity:1;fill-rule:evenodd;stroke:none"
         id="path18" />
      <path
         d="m 317.418,550.145 h 61.695 v -210.36 h -61.695 v 210.36 z m 0,-225.204 h 61.695 V 8.80469 h -61.695 v 316.13631 0"
         style="fill:#0d0d0c;fill-opacity:1;fill-rule:evenodd;stroke:none"
         id="path20" />
      <path
         d="m 393.883,324.941 h 49.867 v 225.204 h 61.777 V 324.941 h 49.868 V 263.16 H 505.527 V 8.80469 H 443.75 V 263.16 h -49.867 v 61.781 0"
         style="fill:#0d0d0c;fill-opacity:1;fill-rule:evenodd;stroke:none"
         id="path22" />
      <path
         d="M 779.551,8.80469 H 555.391 V 62.2344 L 695.105,263.16 H 570.164 v 61.781 H 772.168 V 266.414 L 635.473,70.582 h 144.078 v -61.77731 0"
         style="fill:#0d0d0c;fill-opacity:1;fill-rule:evenodd;stroke:none"
         id="path24" />
      <path
         d="M 779.551,202.586 H 931.652 V 140.809 H 779.551 v 61.777 0"
         style="fill:#0d0d0c;fill-opacity:1;fill-rule:evenodd;stroke:none"
         id="path26" />
      <path
         d="m 238.156,304.078 v 20.863 H 176.383 V 8.80469 h 61.773 V 200.68 c 0,18.847 3.403,57.851 64.5,62.48 v 61.781 c 0,0 -39.801,2.481 -64.5,-20.863 v 0"
         style="fill:#0d0d0c;fill-opacity:1;fill-rule:evenodd;stroke:none"
         id="path28" />
      <path
         d="m 49.8672,324.941 v 127.688 l 0.1094,13.449 c 0,70.598 39.8281,103.617 118.1364,100.629 v -68.019 c -61.726,0 -56.371,-32.184 -56.371,-83.809 v -89.938 h 49.867 V 263.27 H 111.742 V 8.80469 H 49.8672 V 263.16 H 0 v 61.781 h 49.8672 v 0"
         style="fill:#0d0d0c;fill-opacity:1;fill-rule:evenodd;stroke:none"
         id="path30" />
      <path
         d="m 1822.78,324.879 v -22.402 c -26.53,19.632 -59.02,31.214 -94.16,31.214 -89.32,0 -161.73,-74.699 -161.73,-166.839 0,-92.1489 72.41,-166.85590625 161.73,-166.85590625 35.15,0 67.63,11.62110625 94.16,31.26950625 V 8.81641 h 61.69 V 324.879 h -61.69 z M 1728.62,61.5977 c -54.05,0 -97.87,47.1213 -97.87,105.2543 0,58.125 43.82,105.246 97.87,105.246 54.05,0 97.86,-47.121 97.86,-105.246 0,-58.133 -43.81,-105.2543 -97.86,-105.2543 v 0"
         style="fill:#0d0d0c;fill-opacity:1;fill-rule:evenodd;stroke:none"
         id="path32" />
      <path
         d="m 1963.91,452.613 -14.59,29.184 h -13.14 v -29.184 h -10.51 v 69.262 h 26.86 c 13.12,0 21.49,-8.461 21.49,-20.234 0,-9.922 -6.02,-16.243 -13.82,-18.383 l 15.96,-30.645 h -12.25 z m -12.16,59.825 h -15.57 V 490.75 h 15.57 c 7,0 11.76,3.988 11.76,10.793 0,6.809 -4.76,10.895 -11.76,10.895 v 0"
         style="fill:#0d0d0c;fill-opacity:1;fill-rule:nonzero;stroke:none"
         id="path34" />
      <path
         d="m 1947.38,424.332 c -34.7,0 -62.91,28.219 -62.91,62.906 0,34.692 28.21,62.907 62.91,62.907 34.69,0 62.9,-28.215 62.9,-62.907 0,-34.687 -28.21,-62.906 -62.9,-62.906 z m 0,116.344 c -29.46,0 -53.44,-23.981 -53.44,-53.438 0,-29.453 23.98,-53.433 53.44,-53.433 29.46,0 53.43,23.98 53.43,53.433 0,29.457 -23.97,53.438 -53.43,53.438 v 0"
         style="fill:#0d0d0c;fill-opacity:1;fill-rule:nonzero;stroke:none"
         id="path36" />
    </g>
  </g>
</svg>
