<?xml version="1.0" encoding="utf-8"?>
<!-- Generator: Adobe Illustrator 26.3.1, SVG Export Plug-In . SVG Version: 6.00 Build 0)  -->
<svg version="1.1" id="Ebene_3" xmlns="http://www.w3.org/2000/svg" xmlns:xlink="http://www.w3.org/1999/xlink" x="0px" y="0px"
	 viewBox="0 0 281.1 283.2" style="enable-background:new 0 0 281.1 283.2;" xml:space="preserve">
<style type="text/css">
	.st0{fill:none;stroke:#999999;stroke-width:4;}
	.st1{fill:#1D1D1B;}
</style>
<polyline class="st0" points="236.5,1.5 1.5,78.5 2.1,158.2 81.8,134.8 280.1,177.7 281.1,256.2 118.1,283.2 3.1,226.2 "/>
<g>
	<path class="st1" d="M115.6,188.2c0.1,2.3-0.3,4.2-1.4,5.8c-1.1,1.6-2.7,2.6-4.9,3.1c-2.2,0.5-4.9,0.4-8-0.4
		c-3.7-0.9-6.8-2.3-9.3-4.3c-1.8-1.4-3.3-3.1-4.4-5.1s-1.8-3.7-1.9-5.3c-0.1-0.9,0.2-1.7,0.8-2.2c0.6-0.5,1.4-0.6,2.4-0.4
		c0.8,0.2,1.5,0.6,2.1,1.3c0.6,0.6,1.1,1.5,1.6,2.6c0.6,1.3,1.1,2.5,1.7,3.4c0.6,0.9,1.4,1.8,2.5,2.6s2.4,1.3,4,1.7
		c2.3,0.5,4.1,0.4,5.4-0.3s2-1.9,1.9-3.5c-0.1-1.3-0.5-2.4-1.3-3.3c-0.8-1-1.8-1.8-3.1-2.5c-1.2-0.7-2.9-1.5-4.9-2.5
		c-2.8-1.3-5.1-2.6-6.9-3.8c-1.9-1.3-3.4-2.8-4.6-4.5c-1.2-1.7-1.8-3.7-1.9-5.9c-0.1-2.1,0.3-3.8,1.4-5.2c1-1.4,2.6-2.2,4.7-2.6
		c2.1-0.4,4.6-0.2,7.5,0.5c2.3,0.5,4.3,1.3,6.1,2.3c1.7,1,3.2,2.1,4.4,3.3c1.2,1.2,2.1,2.4,2.6,3.6s0.9,2.3,1,3.3
		c0.1,0.9-0.2,1.7-0.8,2.2c-0.6,0.6-1.4,0.8-2.3,0.5c-0.9-0.2-1.6-0.6-2-1.1c-0.5-0.5-1-1.4-1.6-2.5c-0.8-1.6-1.7-2.9-2.7-3.9
		c-1-1-2.6-1.8-4.7-2.3c-2-0.5-3.5-0.4-4.7,0.2c-1.2,0.6-1.7,1.5-1.6,2.7c0,0.8,0.3,1.5,0.7,2.1c0.4,0.6,1,1.3,1.8,1.8
		s1.5,1.1,2.2,1.4c0.8,0.4,2,1,3.7,1.8c2.2,1,4.1,2,5.9,3c1.8,1,3.3,2.1,4.5,3.2s2.3,2.5,3,3.9C115.1,184.6,115.5,186.3,115.6,188.2
		z"/>
	<path class="st1" d="M136.5,189.8l-7-1.7l0.7,10.7c0.1,1.5-0.2,2.6-0.9,3.2c-0.7,0.6-1.6,0.8-2.7,0.5c-1.1-0.3-2.1-0.9-2.9-1.8
		c-0.8-1-1.2-2.2-1.3-3.7l-1.8-29.2c-0.1-1.7,0.2-2.8,0.9-3.3c0.7-0.5,1.9-0.6,3.6-0.2l9.8,2.3c2.9,0.7,5.1,1.4,6.7,2.3
		c1.6,0.8,2.9,1.8,4.1,3.1s2.1,2.7,2.8,4.3c0.7,1.6,1.1,3.3,1.2,5.1c0.2,3.9-0.8,6.5-3,7.9C144.7,190.7,141.2,190.9,136.5,189.8z
		 M133.6,172l-5.1-1.2l0.7,11.6l5.1,1.2c1.8,0.4,3.3,0.6,4.5,0.5c1.2-0.1,2.1-0.5,2.6-1.2c0.6-0.7,0.8-1.8,0.7-3.2
		c-0.1-1.7-0.7-3.1-1.7-4.4C139.3,173.9,137,172.8,133.6,172z"/>
	<path class="st1" d="M179.7,210.3l-2.1-5.2l-15.3-3.6l-1.5,4.4c-0.6,1.7-1.1,2.9-1.6,3.4c-0.5,0.5-1.3,0.7-2.4,0.4
		c-1-0.2-1.8-0.8-2.6-1.7c-0.8-0.9-1.2-1.8-1.3-2.7c0-0.5,0-1,0.2-1.5c0.1-0.5,0.4-1.2,0.7-2.1l8.1-22.3c0.2-0.6,0.5-1.4,0.8-2.3
		s0.7-1.6,1.1-2.2c0.4-0.6,0.9-0.9,1.6-1.2c0.7-0.2,1.6-0.2,2.6,0c1.1,0.3,2,0.7,2.7,1.2c0.7,0.6,1.3,1.2,1.8,2s0.9,1.5,1.2,2.3
		c0.3,0.8,0.8,1.9,1.3,3.2l11.4,26.8c0.9,2,1.4,3.5,1.4,4.3c0.1,0.9-0.3,1.6-0.9,2.2s-1.5,0.7-2.6,0.5c-0.6-0.1-1.1-0.4-1.6-0.7
		c-0.4-0.3-0.8-0.7-1.1-1.1c-0.3-0.4-0.7-1.1-1-1.9C180.3,211.7,180,211,179.7,210.3z M163.9,196.2l11.3,2.7l-6.7-17L163.9,196.2z"
		/>
	<path class="st1" d="M225.1,213.5c0.1,1.2-0.1,2.4-0.6,3.7c-0.5,1.3-1.4,2.4-2.5,3.5c-1.2,1.1-2.7,1.8-4.7,2.1
		c-1.9,0.4-4.2,0.3-6.8-0.4c-2-0.5-3.8-1.1-5.5-1.9c-1.7-0.8-3.2-1.7-4.5-2.8c-1.4-1.1-2.7-2.5-3.9-4c-1.1-1.4-2-3-2.8-4.6
		s-1.4-3.3-1.9-5.1c-0.5-1.8-0.7-3.6-0.9-5.5c-0.2-3.1,0.1-5.7,0.8-7.9c0.7-2.2,1.9-4,3.4-5.3c1.5-1.3,3.4-2.2,5.5-2.6
		c2.2-0.4,4.5-0.3,7,0.3c3.1,0.7,5.8,2,8.3,3.8c2.5,1.8,4.4,3.7,5.8,5.8c1.4,2.1,2.1,4,2.2,5.6c0.1,0.9-0.2,1.6-0.8,2.1
		c-0.6,0.5-1.3,0.7-2.2,0.5c-1-0.2-1.7-0.6-2.2-1.2c-0.5-0.6-1.1-1.5-1.8-2.8c-1.1-2.1-2.4-3.8-3.8-5s-3.1-2.1-5.1-2.6
		c-3.1-0.7-5.6-0.1-7.3,1.8c-1.7,2-2.4,5.1-2.2,9.6c0.2,2.9,0.7,5.5,1.7,7.7s2.2,3.9,3.8,5.2c1.6,1.3,3.4,2.2,5.4,2.7
		c2.2,0.5,4,0.4,5.5-0.3c1.5-0.7,2.5-2.1,3.1-4c0.3-0.9,0.6-1.6,1.1-2.2c0.4-0.5,1.2-0.6,2.3-0.4c0.9,0.2,1.7,0.7,2.4,1.5
		S225.1,212.6,225.1,213.5z"/>
	<path class="st1" d="M255.6,201l-17.2-4.1l0.6,9.3l15.9,3.7c1.2,0.3,2.1,0.7,2.7,1.4c0.6,0.7,0.9,1.4,1,2.3
		c0.1,0.9-0.2,1.5-0.7,1.9c-0.5,0.4-1.4,0.5-2.6,0.2l-15.9-3.8l0.7,10.8l17.8,4.2c1.2,0.3,2.1,0.8,2.8,1.5c0.6,0.7,1,1.5,1.1,2.5
		c0.1,0.9-0.2,1.6-0.8,2s-1.5,0.5-2.7,0.2l-20.8-4.9c-1.7-0.4-2.9-1-3.7-2s-1.2-2.2-1.3-3.9l-1.8-28.5c-0.1-1.1,0-2,0.3-2.6
		c0.3-0.6,0.8-1,1.4-1.2c0.7-0.2,1.6-0.1,2.6,0.2l20.2,4.8c1.2,0.3,2.1,0.8,2.8,1.5c0.6,0.7,1,1.5,1,2.3c0.1,0.9-0.2,1.5-0.8,2
		C257.7,201.2,256.8,201.3,255.6,201z"/>
</g>
<g>
	<path class="st1" d="M33.7,93.6v28.1l15.6-4.9c1.2-0.4,2.2-0.4,2.9,0c0.7,0.4,1,1.1,1,2c0,0.9-0.3,1.8-1,2.6
		c-0.7,0.8-1.6,1.4-2.9,1.8l-18.6,5.8c-1.7,0.5-2.9,0.5-3.6,0c-0.7-0.5-1.1-1.6-1.1-3.3V96c0-1.6,0.4-2.9,1.1-3.9
		c0.7-1,1.6-1.7,2.8-2c1.2-0.4,2.1-0.3,2.8,0.3C33.3,91,33.7,92,33.7,93.6z"/>
	<path class="st1" d="M83.7,108.3l-1.8-4.3l-15.5,4.8l-1.8,5.5c-0.7,2.2-1.3,3.6-1.8,4.5c-0.5,0.8-1.3,1.4-2.5,1.8
		c-1,0.3-1.8,0.2-2.6-0.3c-0.7-0.5-1.1-1.2-1.1-2.1c0-0.5,0.1-1.1,0.3-1.7c0.2-0.6,0.5-1.5,0.9-2.6l9.7-28.1c0.3-0.8,0.6-1.8,1-2.9
		c0.4-1.1,0.8-2.1,1.2-2.9s1-1.5,1.7-2.2s1.6-1.1,2.7-1.4c1.1-0.3,2-0.4,2.7-0.2c0.7,0.2,1.3,0.5,1.7,1.1c0.4,0.5,0.8,1.1,1.1,1.8
		c0.3,0.7,0.7,1.5,1.2,2.6l9.9,21.9c0.8,1.7,1.2,2.9,1.2,3.8c0,0.9-0.4,1.8-1.1,2.8c-0.7,1-1.6,1.6-2.7,1.9
		c-0.6,0.2-1.1,0.2-1.6,0.2c-0.4-0.1-0.8-0.3-1.1-0.6c-0.3-0.3-0.6-0.8-0.9-1.4C84.2,109.4,83.9,108.8,83.7,108.3z M68.4,102.3
		l11.4-3.5L74,84.6L68.4,102.3z"/>
	<path class="st1" d="M120.1,69.2l-8.4,2.6v28.1c0,1.6-0.4,2.9-1.1,3.9c-0.7,1-1.6,1.7-2.8,2c-1.1,0.4-2.1,0.2-2.8-0.3
		c-0.7-0.6-1.1-1.7-1.1-3.3V74.2l-8.4,2.6c-1.3,0.4-2.3,0.4-2.9,0c-0.6-0.4-1-1.1-1-2c0-1,0.3-1.9,1-2.7c0.7-0.8,1.6-1.4,2.9-1.8
		l24.5-7.6c1.3-0.4,2.3-0.4,3,0c0.6,0.4,1,1.1,1,2s-0.3,1.8-1,2.6C122.4,68.2,121.5,68.8,120.1,69.2z"/>
	<path class="st1" d="M153.7,58.3l-17.4,5.4v9.5l16-5c1.2-0.4,2.1-0.4,2.6,0c0.6,0.4,0.9,1,0.9,1.9s-0.3,1.7-0.9,2.4
		c-0.6,0.7-1.5,1.3-2.6,1.7l-16,5v11l18-5.6c1.2-0.4,2.1-0.4,2.7,0c0.6,0.4,0.9,1,0.9,2c0,0.9-0.3,1.8-0.9,2.5
		c-0.6,0.8-1.5,1.3-2.7,1.7l-21,6.5c-1.7,0.5-2.9,0.5-3.6,0c-0.7-0.5-1.1-1.6-1.1-3.3V64.9c0-1.1,0.2-2.1,0.5-2.9
		c0.3-0.8,0.8-1.5,1.5-2c0.7-0.5,1.6-1,2.7-1.3l20.4-6.3c1.2-0.4,2.1-0.4,2.7,0c0.6,0.4,0.9,1,0.9,1.9c0,0.9-0.3,1.7-0.9,2.5
		C155.9,57.4,155,57.9,153.7,58.3z"/>
	<path class="st1" d="M174.2,50L189,68.2v-23c0-1.5,0.3-2.7,0.9-3.7c0.6-0.9,1.5-1.6,2.6-1.9c1.1-0.3,2-0.2,2.6,0.3
		c0.6,0.5,1,1.6,1,3.1v30.4c0,3.4-1.4,5.5-4.2,6.4c-0.7,0.2-1.3,0.3-1.9,0.3s-1.1-0.2-1.6-0.5c-0.5-0.3-0.9-0.7-1.4-1.1
		s-0.8-0.9-1.2-1.4l-14.5-18v22.6c0,1.5-0.3,2.7-1,3.7c-0.7,1-1.5,1.6-2.6,1.9c-1.1,0.3-2,0.2-2.6-0.3c-0.7-0.6-1-1.6-1-3V54
		c0-1.3,0.1-2.3,0.4-3.1c0.3-0.9,0.9-1.7,1.6-2.4c0.8-0.7,1.6-1.2,2.5-1.5c0.7-0.2,1.3-0.3,1.8-0.2c0.5,0.1,0.9,0.2,1.3,0.5
		c0.4,0.3,0.8,0.7,1.1,1.1C173.4,48.9,173.8,49.4,174.2,50z"/>
	<path class="st1" d="M229.3,35.3l-8.4,2.6V66c0,1.6-0.4,2.9-1.1,3.9c-0.7,1-1.6,1.7-2.8,2c-1.1,0.4-2.1,0.2-2.8-0.3
		c-0.7-0.6-1.1-1.7-1.1-3.3V40.3l-8.4,2.6c-1.3,0.4-2.3,0.4-2.9,0c-0.6-0.4-1-1.1-1-2c0-1,0.3-1.9,1-2.7s1.6-1.4,2.9-1.8l24.5-7.6
		c1.3-0.4,2.3-0.4,3,0c0.6,0.4,1,1.1,1,2s-0.3,1.8-1,2.6C231.6,34.3,230.6,34.9,229.3,35.3z"/>
</g>
</svg>
