<?xml version="1.0" encoding="utf-8"?>
<!-- Generator: Adobe Illustrator 26.3.1, SVG Export Plug-In . SVG Version: 6.00 Build 0)  -->
<svg version="1.1" id="Layer_1" xmlns="http://www.w3.org/2000/svg" xmlns:xlink="http://www.w3.org/1999/xlink" x="0px" y="0px"
	 viewBox="0 0 448.49 236.47" style="enable-background:new 0 0 448.49 236.47;" xml:space="preserve">
<style type="text/css">
	.st0{fill:#FFFFFF;}
</style>
<g>
	<path class="st0" d="M1.93-3.53L2.2,29.42c10.68-2.69,21.96-1.59,31.92,3.11c2.28,1.08,4.47,2.34,6.55,3.77l5.55,0.11
		c10.82-6.75,22.5-10.21,34.29-10.16c11.48,0.05,22.83,3.42,33.38,9.92l5.74-0.01c10.55-6.68,21.96-10.09,33.48-10
		c11.8,0.09,23.45,3.84,34.15,10.99l5.9-0.23c10.62-6.86,22.13-10.41,33.76-10.43c11.69-0.02,23.25,3.52,33.93,10.39l5.73,0.08
		c10.55-7.1,22.06-10.78,33.71-10.78c11.65,0,23.15,3.67,33.71,10.76l6.13,0.14c10.26-6.74,21.37-10.39,32.65-10.72
		c11.9-0.35,23.71,3.01,34.63,9.84l6.15,0.15c4.7-3.91,10.11-6.87,15.94-8.71c6.15-1.94,12.63-2.59,19.03-1.92l0.38-29.25L1.93-3.53
		z"/>
	<path class="st0" d="M2.23,127.78l0.03,14.48c2.57-0.35,5.15-0.51,7.74-0.49c10.51,0.08,20.78,3.17,29.63,8.9l7.46,0.21
		c9.96-6.09,21.11-9.42,32.46-9.55c11.62-0.13,23.07,3.11,33.31,9.26l7.25,0.09c9.79-5.96,20.76-9.23,31.93-9.37
		c12-0.15,23.79,3.33,34.21,9.88l7.24,0.07c9.93-6.07,21.08-9.42,32.43-9.6c11.85-0.19,23.54,3.1,33.93,9.37l7.27,0.15
		c6.14-3.85,12.58-6.61,19.18-8.21c11.24-2.73,22.75-2.08,33.8,1.91l13.81-7.18l-0.36-9.67L2.23,127.78z"/>
	<polygon class="st0" points="40.64,9.78 46.41,9.72 47.25,236.47 39.39,236.33 	"/>
	<polygon class="st0" points="113.9,9.78 119.67,9.72 120.47,230.38 112.95,231.42 	"/>
	<polygon class="st0" points="187.14,9.78 192.91,9.72 193.96,207.35 186.47,211.22 	"/>
	<polygon class="st0" points="260.5,9.78 266.27,9.72 266.97,175.99 259.89,179.9 	"/>
	<polygon class="st0" points="334.22,9.78 339.99,9.72 340.6,134.38 333.32,138.13 	"/>
	<polygon class="st0" points="407.69,9.78 413.46,9.72 414.08,89.93 406.73,94.56 	"/>
	<rect x="2.23" y="74.58" class="st0" width="407.92" height="8.41"/>
	<rect x="2.22" y="180.11" class="st0" width="234.61" height="8.4"/>
	<polygon class="st0" points="70.23,82.99 46.17,82.99 46.17,106.12 	"/>
	<polygon class="st0" points="89.91,82.99 113.97,82.99 113.97,106.12 	"/>
	<polygon class="st0" points="217.15,82.99 193.09,82.99 193.09,106.12 	"/>
	<polygon class="st0" points="236.83,82.99 260.89,82.99 260.89,106.12 	"/>
	<polygon class="st0" points="363.74,82.99 339.68,82.99 339.68,106.12 	"/>
	<polygon class="st0" points="2.35,90.42 15.56,90.62 40.19,108.45 40.37,98.77 17.8,81.96 2.17,82.29 	"/>
	<polygon class="st0" points="119.7,107.69 144.5,90.42 162.37,90.62 187.19,108.45 187.37,98.77 164.62,81.96 142.22,82.29 
		119.52,98.49 	"/>
	<polygon class="st0" points="266.52,107.69 291.24,90.42 309.06,90.62 333.82,108.45 334,98.77 311.31,81.96 288.98,82.29 
		266.34,98.49 	"/>
	<polygon class="st0" points="2.35,196.12 15.08,196.32 39.7,214.15 39.88,204.47 17.32,187.66 2.13,187.98 	"/>
	<polygon class="st0" points="120.25,213.39 144.84,196.12 162.57,196.32 185.12,211.88 187.27,210.49 187.37,204.47 164.81,187.66 
		142.59,187.98 120.07,204.19 	"/>
	<polygon class="st0" points="70.05,188.21 45.99,188.21 45.99,211.34 	"/>
	<polygon class="st0" points="89.73,188.21 113.79,188.21 113.79,211.34 	"/>
	<polygon class="st0" points="259.89,180.11 236.83,180.11 236.83,188.52 	"/>
	<polygon class="st0" points="381.69,81.97 400.6,98.4 406.96,94.22 407.32,81.96 	"/>
</g>
</svg>
