<svg id="Ebene_1" data-name="Ebene 1" xmlns="http://www.w3.org/2000/svg" viewBox="0 0 31 28"><defs><style>.cls-1{fill:#fff;stroke:#8000ff;}</style></defs><title>pdf</title><path class="cls-1" d="M19.5,10.5v-3l-6-7H2.5a2,2,0,0,0-2,2v23a2,2,0,0,0,2,2h15a2,2,0,0,0,2-2v-2h8a3,3,0,0,0,3-3v-7a3,3,0,0,0-3-3Zm-1,13v2a1,1,0,0,1-1,1H2.5a1,1,0,0,1-1-1V2.5a1,1,0,0,1,1-1h10v5a2,2,0,0,0,2,2h4v2h-8a3,3,0,0,0-3,3v7a3,3,0,0,0,3,3ZM13.5,2l4.7,5.5H14.5a1,1,0,0,1-1-1Zm-3,9.5h17a2,2,0,0,1,2,2v7a2,2,0,0,1-2,2h-17a2,2,0,0,1-2-2v-7A2,2,0,0,1,10.49,11.5Zm13,5v-2h4v-1h-5v7h1v-3h3v-1Zm-13-1v-2h3a2,2,0,1,1,0,4h-2v3h-1Zm1-1v2h2a1,1,0,0,0,0-2Zm5-1h3a2,2,0,0,1,2,2v3a2,2,0,0,1-2,2h-3Zm1,1v5h2a1,1,0,0,0,1-1v-3a1,1,0,0,0-1-1Z"/></svg>